<?xml version="1.0" encoding="UTF-8" standalone="no"?>
<!-- Created with Inkscape (http://www.inkscape.org/) -->

<svg
   xmlns:dc="http://purl.org/dc/elements/1.1/"
   xmlns:cc="http://creativecommons.org/ns#"
   xmlns:rdf="http://www.w3.org/1999/02/22-rdf-syntax-ns#"
   xmlns:svg="http://www.w3.org/2000/svg"
   xmlns="http://www.w3.org/2000/svg"
   xmlns:sodipodi="http://sodipodi.sourceforge.net/DTD/sodipodi-0.dtd"
   xmlns:inkscape="http://www.inkscape.org/namespaces/inkscape"
   width="256"
   height="256"
   id="svg2"
   version="1.1"
   inkscape:version="0.48.4 r9939"
   sodipodi:docname="PatternWall2.svg"
   inkscape:export-filename="C:\Users\Piccool\Documents\GitHub\OrangeLord\resources\images\testownwall2.png"
   inkscape:export-xdpi="90"
   inkscape:export-ydpi="90">
  <defs
     id="defs4" />
  <sodipodi:namedview
     id="base"
     pagecolor="#ffffff"
     bordercolor="#666666"
     borderopacity="1.0"
     inkscape:pageopacity="0.0"
     inkscape:pageshadow="2"
     inkscape:zoom="5.3502909"
     inkscape:cx="120.11647"
     inkscape:cy="135.85236"
     inkscape:document-units="px"
     inkscape:current-layer="layer2"
     showgrid="true"
     height="2979.92px"
     inkscape:window-width="2560"
     inkscape:window-height="1538"
     inkscape:window-x="-8"
     inkscape:window-y="-8"
     inkscape:window-maximized="1"
     gridtolerance="13"
     width="256px">
    <inkscape:grid
       type="xygrid"
       id="grid2986"
       empspacing="1"
       visible="true"
       enabled="true"
       snapvisiblegridlinesonly="true"
       dotted="false" />
  </sodipodi:namedview>
  <metadata
     id="metadata7">
    <rdf:RDF>
      <cc:Work
         rdf:about="">
        <dc:format>image/svg+xml</dc:format>
        <dc:type
           rdf:resource="http://purl.org/dc/dcmitype/StillImage" />
        <dc:title></dc:title>
      </cc:Work>
    </rdf:RDF>
  </metadata>
  <g
     inkscape:label="Calque 1"
     inkscape:groupmode="layer"
     id="layer1"
     transform="translate(0,-796.36162)" />
  <g
     inkscape:groupmode="layer"
     id="layer2"
     inkscape:label="Mur"
     transform="translate(0,-796.36162)">
    <path
       style="fill:#000000"
       d="m 222.52963,827.8475 c -0.89165,-0.67359 -1.62133,-1.67195 -1.89683,-2.59523 -0.14628,-0.49021 -0.56827,-1.03027 -1.31397,-1.68153 -0.60418,-0.52765 -2.80091,-0.2451 -3.1851,-0.82629 -1.16202,-1.75783 0.52013,-2.25202 -3.29532,-2.25284 -3.04339,-5.6e-4 -3.06377,-3.01265 -3.62326,-3.35511 0.20717,-2.93663 3.89211,-0.84552 3.93117,-1.88916 0.34609,-9.24855 -5.44363,-2.63522 -5.69771,-3.29622 -0.29106,-0.7572 -0.0415,-3.9526 -0.36353,-3.37928 l -2.63213,4.68582 -2.18952,4.26558 -6.53412,-1.2149 0.0383,-7.31832 c -0.50723,-1.37105 2.21442,-0.72587 2.45155,-2.36793 2.32823,-0.80473 1.15709,-3.96213 0.96277,-4.90194 -0.36854,-1.7826 -0.68006,-2.007 -3.26829,-2.35428 -1.21375,-0.16284 -2.47408,-0.38067 -2.80075,-0.48405 -0.72474,-0.22936 -1.08721,-0.8555 -1.00381,-1.73404 L 192,796.36162 l 15.99848,0 16.00152,0 0,16.02205 0,15.97795 -0.32311,0.0159 c -0.24477,0.012 -0.76119,-0.23844 -1.14698,-0.52988 z"
       id="path3108"
       inkscape:connector-curvature="0"
       sodipodi:nodetypes="cscsccscsccccccccccccccscc" />
    <path
       style="fill:#000000"
       d="m 128.63043,890.64008 c 0.67494,-0.88826 1.67526,-1.61518 2.60038,-1.88963 0.4912,-0.14572 1.03232,-0.56612 1.68486,-1.30898 0.52871,-0.60189 1.43774,-1.40749 2.02008,-1.79022 1.76133,-1.15761 1.65856,-0.86841 1.65937,-4.66938 5.7e-4,-3.03185 4.33893,1.22917 4.68212,0.6718 0.35948,-0.5838 4.18787,-0.62165 5.23366,-0.62725 1.49192,-0.008 3.73994,-4.22249 4.40225,-4.47561 0.75869,-0.28996 -5.68752,-1.68087 -6.74389,-2.87703 l -0.92004,-1.0418 0.069,-2.91529 1.66146,-1.72551 1.39537,-0.69607 c 1.37376,-1.7e-4 2.8729,-0.32684 4.5182,-0.0906 2.39584,0.34396 2.9747,0.37006 3.91637,0.17648 1.78614,-0.36715 2.01098,-0.67749 2.35895,-3.2559 0.16316,-1.20915 0.38142,-2.46469 0.48501,-2.79013 0.22983,-0.72198 0.90508,-0.76881 1.78537,-0.68573 L 160,860.36162 l 0,16.07419 0,15.92581 -15.87482,0 -16.12518,0 0.0996,-0.57897 c 0.0414,-0.24063 0.23892,-0.7583 0.53093,-1.14263 z"
       id="path3108-1"
       inkscape:connector-curvature="0"
       sodipodi:nodetypes="cscsccscsccccccccccccccscc" />
    <path
       style="fill:#000000"
       d="m 1.5658916,989.13716 c 0.8928306,0.67234 1.623491,1.66882 1.8993532,2.59038 0.1464698,0.48931 0.569032,1.02836 1.3157144,1.6784 0.604987,0.52667 1.4147323,1.43221 1.7994317,2.01231 1.1635665,1.75456 0.8728784,1.65218 4.6934061,1.65299 3.047451,5.7e-4 6.701386,-1.84509 2.028264,3.35626 5.820164,0.9188 -6.0913468,5.0135 -6.0857178,6.0553 0.008,1.4861 9.1962308,-2.1387 9.4506528,-1.4789 0.291452,0.7557 0.75018,0.6647 1.952495,-0.3876 l 1.047161,-0.9165 -0.434012,7.7321 5.019233,-6.4043 1.002965,2.2639 c 1.71e-4,1.3685 0.104667,2.3845 -0.132779,4.0235 -0.345729,2.3866 -0.371964,2.9632 -0.177388,3.9013 0.36904,1.7792 0.680976,2.0032 3.272654,2.3499 1.215371,0.1625 2.477372,0.3799 2.804486,0.4831 0.725695,0.2289 1.061697,0.7795 0.978189,1.6564 l 0,0.6559 -16.019884,0 -15.980116,0 0,-15.6404 0,-16.35958 0.37628502,0 c 0.24512353,0 0.80336628,0.48493 1.18967388,0.77582 z"
       id="path3108-1-7"
       inkscape:connector-curvature="0"
       sodipodi:nodetypes="cscsccscsccccssccccccccscc" />
    <path
       style="fill:#000000"
       d="m 95.768537,926.15752 c -0.676232,0.88826 -1.67848,1.61518 -2.605375,1.88963 -0.492142,0.14572 -1.034313,0.56612 -1.688116,1.30898 -0.529718,0.60189 -1.4405,1.40749 -2.023958,1.79022 -1.764717,1.15761 3.384711,1.80294 3.383896,5.60391 -5.73e-4,3.03185 -0.414042,4.19109 -0.757842,4.74846 -0.360173,0.5838 -5.123257,-1.0605 -6.171057,-1.0549 -1.494783,0.008 4.473486,4.97012 3.809897,5.22324 -0.760145,0.28996 -3.943038,4.18643 -5.778035,1.9425 l -2.816309,-3.44394 -1.551449,2.89804 1.206242,2.33566 -2.144844,0.59714 c -5.737341,3.25823 -0.529678,-7.08264 -6.663884,-6.75815 -2.400446,-0.34396 -1.485167,5.98473 -2.428648,6.17831 -1.789573,0.36715 -2.01485,0.67749 -2.363487,3.2559 -0.16348,1.20915 -0.382159,2.46469 -0.485946,2.79013 -0.230266,0.72198 -0.569024,0.85668 -1.451,0.7736 C 64.602964,955.79256 64.344743,956.3953 64,956.36162 l 0,-15.87589 0,-16.12411 16.244037,0 15.755963,0 -0.09292,1.08557 c -0.02082,0.24327 -0.07372,0.42898 -0.138628,0.7104 z"
       id="path3108-1-7-4"
       inkscape:connector-curvature="0"
       sodipodi:nodetypes="cscsccscsccccccccccccccscc" />
    <path
       style="fill:#000000"
       d="m 157.42653,827.82186 c -1.19898,-0.45011 -1.28844,-0.5348 -3.0284,-2.8667 -0.61394,-0.82281 -1.09674,-1.2353 -1.84873,-1.57955 -0.55979,-0.25625 -1.41378,-0.68548 -1.89774,-0.95384 -1.10726,-0.61396 -1.30694,-0.60989 -2.80821,0.0573 -0.67474,0.29988 -1.47638,0.60662 -1.7814,0.68166 -0.68248,0.16789 -1.8281,-0.17977 -2.07353,-0.62925 -0.10005,-0.18324 3.64613,-5.66457 1.89125,-6.84876 -0.9915,-0.66907 -0.26794,-1.19319 -2.93156,1.82392 -1.56104,1.76821 -0.43131,-3.86813 -2.90089,-4.29868 -2.12468,-0.37043 -4.16712,2.19498 -5.63567,1.1669 l -0.83392,-0.58379 0,-1.416 c 0,-0.82158 7.06352,-2.89469 7.23374,-3.29402 0.4303,-1.00941 -3.49061,-5.35493 -1.45688,-6.68135 1.9829,-1.29326 6.74702,3.0044 8.12623,2.82293 1.36548,-0.17966 2.32637,-2.70014 3.38896,-4.23191 0.48564,-0.70008 1.04036,-1.96571 -1.14684,-3.27523 0.19235,-0.11975 2.09076,-0.38493 4.21867,-0.58931 2.12792,-0.20437 4.17741,-0.46152 4.5544,-0.57145 0.37701,-0.10992 0.88472,-0.19986 1.12826,-0.19986 l 0.37573,0.007 0,15.95607 0,16.04393 -0.66874,0 c -0.40469,-0.005 -1.26181,-0.2985 -1.9047,-0.53985 z"
       id="path3214"
       inkscape:connector-curvature="0"
       sodipodi:nodetypes="cscccccsssscscssscscscccccc" />
    <path
       style="fill:#000000"
       d="m 0.38528613,889.70819 c 0.45436454,-1.23861 0.53984458,-1.33103 2.89377447,-3.12849 0.8305806,-0.63424 1.2469764,-1.13299 1.5944784,-1.90984 0.2586722,-0.57829 0.6919571,-1.4605 0.9628485,-1.96046 0.6197628,-1.14386 3.045425,1.64035 2.3719084,0.0895 -0.3027103,-0.69705 3.3126681,-1.15137 3.2369201,-1.46647 -0.169472,-0.70504 12.517243,11.00798 3.251873,3.83892 11.025512,5.13001 -2.610656,-7.80659 -1.415275,-7.98066 1.195381,-0.17409 4.030687,-2.29975 4.244714,-2.43932 0.527949,-0.34425 -5.030732,-0.47833 -4.596116,-3.02953 0.373927,-2.19492 0.587893,-2.09083 1.625679,-3.60793 l 0.98719,-1.85295 2.225116,-1.18978 c 0.730829,-0.39078 1.919953,0.72212 2.323054,0.89797 1.018949,0.44452 7.928457,-0.21598 9.267404,1.88497 1.305475,2.04843 -2.540828,7.90152 -2.357638,9.32633 0.181357,1.41061 0.723951,2.19841 2.270202,3.29611 0.706683,0.5017 1.383778,1.07475 1.504651,1.27346 0.120872,0.19871 0.388562,2.15986 0.594865,4.3581 0.206305,2.19825 0.135514,4.31547 0.246479,4.70494 0.110963,0.38947 0.210438,0.82937 0.304992,1.06263 L 32,892.36162 l -15.964084,0 -16.035916,0 0.09751313,-0.68577 c 0.005919,-0.41807 0.04416156,-1.30352 0.28778554,-1.96766 z"
       id="path3214-0"
       inkscape:connector-curvature="0"
       sodipodi:nodetypes="cscssccccsccsssscsssscccccc" />
    <path
       style="fill:#000000"
       d="m 95.583467,799.02339 c -0.45156,1.2027 -0.53652,1.29244 -2.87594,3.03781 -0.82546,0.61585 -1.23928,1.10015 -1.58464,1.85448 -0.25708,0.56153 -0.68769,1.41817 -0.95691,1.90363 -0.61594,1.11071 -0.61186,1.31101 0.0575,2.81694 0.30085,0.67684 0.60858,1.48097 0.68386,1.78694 0.16843,0.6846 -0.18035,1.83378 -0.63128,2.07997 -0.18383,0.10036 -1.30626,0.32079 -2.49427,0.48982 -1.18801,0.16904 -2.33405,0.41821 -2.54677,0.55373 -0.52469,0.33427 1.879573,1.22891 1.447633,3.70616 -0.37162,2.13129 3.184142,2.95008 1.954262,4.26204 l -3.758415,4.00925 -4.79159,0.19829 c -0.823525,0.0341 -1.71041,-2.89968 -2.11102,-3.07043 -1.01267,-0.43164 -2.39904,-2.67346 -3.72974,-4.71351 -1.29743,-1.98906 4.189171,-6.55675 1.429265,-8.33684 -1.160997,-0.74882 -5.478592,-2.33298 -7.015302,-3.39887 -0.702337,-0.48715 -1.176953,2.32744 -3.280038,0.54812 -0.120136,-0.19295 -0.386171,-2.09726 -0.59121,-4.23178 -0.205028,-2.13453 -0.463006,-4.19039 -0.573292,-4.56856 -0.110274,-0.37818 -0.200504,-0.88747 -0.200504,-1.13176 L 64,796.36162 80.029347,796.37467 96,796.36162 l 0.03362,0.75115 c -0.005,0.40595 -0.20806,1.26573 -0.45019,1.91062 z"
       id="path3214-9"
       inkscape:connector-curvature="0"
       sodipodi:nodetypes="csccsscsssscscssscscscccccc" />
    <path
       style="fill:#000000"
       d="m 64.33734,891.28361 c 0,-0.96668 0.08087,-1.17252 0.857143,-2.18177 0.471428,-0.61293 0.886917,-1.18032 0.923306,-1.26091 0.03639,-0.0806 0.614756,-0.63524 1.285254,-1.23262 0.828131,-0.73782 1.482671,-1.14998 2.041001,-1.28529 0.45204,-0.10954 1.10618,-0.33952 1.45364,-0.51107 0.62037,-0.30628 0.63173,-0.33534 0.63173,-1.61585 0,-1.41202 -0.0525,-1.47758 -1.40926,-1.76123 -0.3671,-0.0767 -0.53455,-0.2309 -0.53455,-0.49216 0,-0.2214 0.788369,-0.27252 0.505529,-0.39848 -0.26725,-0.11903 11.385677,1.02213 10.417325,-4.8644 -0.0513,-1.90941 8.855807,-3.87478 0.918737,-7.48401 -0.539041,-0.24512 -8.449471,2.82477 -8.537122,-0.0353 -0.11564,-3.77345 -5.528148,-4.34948 -5.804926,-4.43897 -1.030149,-0.33303 -2.673232,-1.29255 -2.842893,-1.64512 C 64.132837,861.849 63.930936,861.4841 64,861.21518 l 0,-0.85356 16.085854,0 15.914146,0 0.02131,0.83634 c 0.01094,0.42914 -0.1162,0.61779 -0.45944,0.74532 -0.6052,0.2249 -0.70684,0.53666 -0.70684,2.16826 0,1.84485 -1.905644,4.33292 -2.188694,4.66626 -1.612629,1.23832 1.372174,1.29885 0.0093,2.70135 -0.61928,0.41103 0.357664,2.59823 -1.40932,1.16994 -1.221103,-0.99557 -4.401415,-0.39532 -3.125291,1.19585 l 1.892394,2.35959 0.670548,2.25023 -0.246572,2.02714 -1.239349,1.23453 c -0.799792,0.79668 -1.630915,2.34009 -1.564365,2.50981 0.0667,0.16972 -2.10365,4.38858 2.536105,0.52356 2.70637,-1.38635 0.90949,0.66196 1.12959,1.02654 0.2201,0.36459 0.75335,0.83896 1.18501,1.05419 1.26684,0.63164 2.12889,1.48374 2.36386,2.33652 0.11713,0.42514 0.47552,1.09229 0.79642,1.48255 0.36811,0.44767 0.22476,0.88498 0.31139,1.15687 L 96,892.36162 l -15.669156,0 -16.330844,0 z"
       id="path3268"
       inkscape:connector-curvature="0"
       sodipodi:nodetypes="cscscsscsccssccccccscscccscccsccssscscccc" />
    <path
       style="fill:#000000"
       d="m 128.79633,924.56956 c 0.99095,0 1.20195,0.0805 2.23653,0.85329 0.62832,0.46931 1.20994,0.88294 1.29256,0.91916 0.0827,0.0362 0.65118,0.612 1.26355,1.27949 0.75634,0.82441 1.17885,1.47601 1.31755,2.03183 0.11229,0.45001 0.34805,1.10122 0.5239,1.44711 0.31397,0.61759 0.34375,0.6289 1.65641,0.6289 1.44746,0 1.51466,-0.0522 1.80542,-1.40293 0.0786,-0.36545 0.23671,-0.53215 0.50451,-0.53215 0.22697,0 0.48266,-0.2022 0.61176,-0.48377 0.12202,-0.26606 10.55329,7.55184 7.43905,0.63468 1.95733,-0.051 6.18262,6.07968 6.83335,5.87706 0.57802,-0.17998 -4.713,-7.98103 -1.78113,-8.06829 3.86815,-0.11512 4.45864,-0.17338 4.55038,-0.44891 0.34138,-1.02553 1.43806,-2.13697 1.79948,-2.30587 0.2331,-0.10893 0.59958,-0.70634 0.87526,-0.63754 l 0.27509,0 0,16.00967 0,15.99033 -0.36295,-5e-5 c -0.43936,-6e-5 -0.63328,-0.36595 -0.76402,-0.70764 -0.23054,-0.60248 -0.55012,-0.70367 -2.22267,-0.70367 -1.89116,0 -6.1695,-0.53992 -6.51119,-0.8217 -0.15141,-0.12485 -0.61999,-0.73142 -1.04133,-1.34795 -0.42135,-0.61651 -0.96104,-1.24787 -1.19931,-1.403 -0.27531,-0.17924 -0.0674,-6.58984 -1.2879,-5.35518 l -7.77017,-0.21354 2.52229,4.1946 -1.05171,-0.46665 -1.70742,2.41838 c -0.66743,0.94534 -2.24638,-2.56238 -2.42034,-2.49607 -0.17398,0.0664 -0.48409,0.44739 -0.68915,0.84677 -0.20504,0.39938 -0.67858,0.90541 -1.05231,1.12452 -0.37373,0.21911 -0.86002,0.74997 -1.08065,1.17969 -0.64748,1.26115 -1.52097,2.11933 -2.39517,2.35324 -0.4358,0.11661 -1.11969,0.47339 -1.51975,0.79285 -0.45891,0.36645 -0.8966,0.64608 -1.1859,0.6054 l -0.26035,0 0,-15.97285 0,-16.02715 0.34824,-5e-5 z"
       id="path3268-4"
       inkscape:connector-curvature="0"
       sodipodi:nodetypes="cccscsscsccsscsccccsssccsscccsccsssccccccc" />
    <path
       style="fill:#000000"
       d="m 2.9027234,956.09509 c 1.2441661,-0.45291 1.2336281,-0.31171 3.039151,-2.6581 0.6370851,-0.82792 1.1380724,-1.24298 1.9184071,-1.58936 0.5808841,-0.25785 1.4670515,-0.68974 1.9692542,-0.95977 1.1489913,-0.61777 0.7954793,1.44229 2.3533163,2.11366 0.700177,0.30174 2.092738,-1.44557 2.409252,-1.37006 0.708202,0.16893 -7.6352009,-5.04044 -4.7638328,-7.54867 2.1597758,-1.67964 4.0699568,1.49343 4.2448068,0.30188 0.174871,-1.19155 3.610019,1.77092 3.750215,1.55758 0.345795,-0.52625 -3.257638,-8.98175 -0.694994,-9.41497 2.204766,-0.37273 3.78236,8.38546 5.306265,7.351 l 1.487451,-5.65666 3.624891,0.7725 c 0.809331,0.17248 -0.725359,-1.9138 -0.901998,-2.3156 -0.446514,-1.01569 -1.114866,-4.55192 -3.225241,-5.88658 -2.057619,-1.30129 -2.680128,-0.0798 -4.11133,-0.26243 -1.416938,-0.18078 -6.133291,-1.46024 -7.235915,-3.00153 -0.503951,-0.70442 -1.079571,-1.37935 -1.279173,-1.49983 -0.199601,-0.12049 -2.1695482,-0.38732 -4.377649,-0.59296 -2.2081108,-0.20564 -4.3348282,-0.46439 -4.7260453,-0.575 -0.391217,-0.11061 -0.91805978,-0.20111 -1.17076831,-0.20111 L 0,924.36162 l 0,16.46234 0,15.53766 1.6291711,-0.20607 c 0.4199453,-0.006 0.6064332,0.18239 1.2735523,-0.0605 z"
       id="path3214-0-8"
       inkscape:connector-curvature="0"
       sodipodi:nodetypes="cscssccccsccsssscsssscccccc" />
    <rect
       style="fill:#000000"
       id="rect3306"
       width="33.717701"
       height="33.963085"
       x="191.36365"
       y="987.62549" />
    <path
       style="fill:#000000"
       d="m 128,1004.3512 0,-15.98958 1.16401,1.2e-4 c 0.82984,9e-5 1.9798,2.07917 2.05656,2.27876 0.25678,0.66741 0.51885,-0.97245 2.7531,-0.83319 l 2.19397,0.13674 0.24075,1.47686 c 0.67144,0.92354 -0.0928,1.67153 -0.0928,1.95526 0,0.0918 1.97194,0.34181 2.18047,0.79844 0.53944,1.1812 -12.89385,22.32809 -2.06025,11.44019 l 8.46635,-3.6539 1.60167,-5.06514 c 4.47888,-0.53363 1.73972,6.59494 1.90844,6.91124 6.80964,5.5255 0.96493,-4.01899 2.18532,-4.01899 1.04837,0 3.88358,4.74089 4.1058,4.40409 0.0724,-0.1099 -1.49105,-6.00195 -1.41858,-6.92562 l 0.37859,-1.67938 0.4742,-0.36693 c 0.88274,-0.68307 1.89872,-0.30135 2.17137,-1.77487 0.16681,-0.90157 0.15961,-2.30148 0.42972,-2.44314 0.20668,-0.10838 0.60196,-0.65713 1.15001,-1.21946 0.77156,-0.79166 1.05276,-1.42096 1.49886,-1.42096 l 0.61244,-1.2e-4 0,16.17978 -0.0121,15.8122 -15.96197,0.01 -16.02591,0 z"
       id="path3316"
       inkscape:connector-curvature="0"
       sodipodi:nodetypes="ccscsccscscccscscsscsscccccc" />
    <path
       style="fill:#000000"
       d="m 80.210187,988.36162 15.789813,0 2.94e-4,1.19884 c 2.03e-4,0.82949 -2.066379,1.97886 -2.26651,2.0556 -0.669213,0.25664 0.975063,0.51859 0.835436,2.75178 l -0.426185,1.86275 -1.191767,0.57082 c -0.926017,0.67113 4.098523,5.81769 -1.96051,-0.0928 -4.314069,-4.20829 -8.192768,0.84957 -8.650625,1.058 -4.361771,11.56669 5.903787,5.71729 6.871915,6.53529 l 2.718671,2.2971 -1.852325,3.2836 c -3.018668,2.9835 -3.607073,-2.1857 -3.924249,-2.017 -0.855139,0.4545 -1.592501,1.8985 -1.592501,3.1183 0,1.0478 0.306381,2.2004 0.644063,2.4225 0.110253,0.072 0.958129,0.1911 1.884276,0.2634 l 1.683894,0.1317 0.367938,0.7207 c 0.507456,0.9941 0.302128,1.8979 1.779621,2.1704 0.903995,0.1667 2.307672,-0.062 2.449717,0.2074 0.108678,0.2066 0.6589,0.8237 1.222736,1.3716 0.793793,0.7711 0.638957,1.7953 1.025124,1.5718 0.226576,-0.1311 0.220724,0.318 0.380987,0.5182 l -16.279192,0 -15.720808,0 0,-15.9465 0,-16.05348 z"
       id="path3316-8"
       inkscape:connector-curvature="0"
       sodipodi:nodetypes="ccscsccscscccscscsscsscccccc" />
    <path
       style="fill:#000000"
       d="m 224,940.52682 0,15.8348 -0.45395,-0.0492 c -0.84566,-0.0916 -2.02936,-2.04859 -2.10806,-2.247 -0.26318,-0.66345 -0.53182,0.96667 -2.822,0.82825 l -1.78871,-0.30059 -0.70695,-1.30344 c -0.68827,-0.91804 -0.19762,-1.59984 -0.19762,-1.88188 0,-0.0911 -1.72845,-0.40153 -1.94221,-0.85544 -2.98273,5.8093 -8.75496,1.81313 -4.59361,-1.7109 l 4.73236,-4.00759 -5.16956,-0.16389 c -0.3762,-0.39852 -1.19921,5.18603 -4.17575,1.88109 -5.1388,-2.71684 11.13638,-11.6717 -2.63715,-6.99906 -1.01767,0.34524 -4.31257,-2.12603 -4.54031,-1.79125 -0.074,0.1093 1.29928,8.79992 1.22506,9.71809 l -0.13501,1.6694 -0.73914,0.36477 c -1.01942,0.50309 -1.94629,0.29953 -2.22575,1.7643 -0.17099,0.89622 -0.13733,2.18889 -0.41378,2.32971 -0.2118,0.10775 -0.64369,0.75215 -1.20547,1.31114 -0.79085,0.78696 -0.74418,1.04382 -1.18469,1.16468 l -0.9177,0.27881 0,-16.18886 0,-15.81114 16.31267,0 15.68733,0 z"
       id="path3316-8-2"
       inkscape:connector-curvature="0"
       sodipodi:nodetypes="ccscsccscscccscscsscsscccccc" />
    <path
       style="fill:#000000"
       d="m 208.14598,892.36162 -16.14598,0 0.10361,-1.01227 c 0.085,-0.83041 2.07001,-1.9914 2.2705,-2.06862 0.67039,-0.25826 -0.97678,-0.52188 -0.83691,-2.76919 l 0.13736,-2.2068 1.48344,-0.24218 c 0.92764,-0.67538 1.67897,0.0935 1.96397,0.0935 0.0921,0 0.34332,-1.98347 0.80199,-2.19323 1.18645,-0.54261 1.40806,-1.12048 1.72878,-4.50767 l 0.27229,-2.87593 0.73218,-0.67102 c 0.4027,-0.36917 0.99214,-0.80997 1.30987,-0.97966 0.85665,-0.45745 1.59531,-1.9106 1.59531,-3.13804 0,-1.05453 -0.30692,-2.21438 -0.64519,-2.43785 -0.11046,-0.0726 -0.95982,-0.19231 -1.8876,-0.26515 l -1.68686,-0.13247 -0.36859,-0.72531 c -0.50835,-1.00035 -0.30265,-1.90989 -1.78275,-2.18411 -0.90559,-0.16778 -2.31173,0.0625 -2.45403,-0.20874 -0.10887,-0.20784 -0.66005,-0.82893 -1.22488,-1.38021 -0.79519,-0.77606 -0.97447,-1.1694 -1.1508,-1.58178 L 192,860.36162 l 16.33692,0 15.66308,0 0,16.03896 0,15.96104 z"
       id="path3316-8-2-4"
       inkscape:connector-curvature="0"
       sodipodi:nodetypes="ccscsccscscccscscsscsscccccc" />
    <path
       style="fill:#000000"
       d="m 16.31645,820.18435 c -0.246214,-0.27207 4.521363,0.0933 3.439445,-0.31996 l -2.577847,-3.52665 -3.905788,1.52773 c -0.634956,0.24836 0.576713,1.35899 -0.148722,1.95656 -1.740697,1.43386 -1.659282,2.20353 -4.0745771,2.1843 -1.172776,-0.009 -2.8276867,-2.65695 -2.9504937,-2.73282 -0.319001,-0.19715 -0.275908,-1.92317 0.0686,-2.7477 0.241474,-0.57793 2.6260797,-0.93453 2.4088207,-1.11484 -0.165273,-0.13716 -0.1064956,-1.94654 -0.5951199,-3.53942 -0.9589825,-3.1262 -2.3962998,-0.41587 -2.6647038,-0.64447 -0.670008,-0.57063 -1.087442,-2.37859 -0.987746,-4.27804 0.09078,-1.72955 0.09473,-1.74057 0.850982,-2.37548 l 0.759783,-0.63788 3.471664,-1.731 c 2.5579608,-1.27542 3.6361718,0.69294 4.0826888,1.07366 3.300319,2.81398 2.003996,-1.17287 5.141466,-1.17287 l 5.149984,0.99148 1.01831,3.6693 c 0.52208,1.88123 -2.896945,-1.78667 -2.750204,4.26253 0.07011,2.89016 3.979337,4.22497 4.0823,4.42039 0.263115,0.4994 -1.538392,3.55477 -1.815023,4.39296 l 2.543518,3.481 -7.489134,1.58637 c -3.280711,0.69493 -2.762483,-4.39841 -3.058203,-4.72515 z"
       id="path3378"
       inkscape:connector-curvature="0"
       sodipodi:nodetypes="cscssccscscsscssscsscscsc" />
    <path
       style="fill:none;stroke:#000000;stroke-width:1px;stroke-linecap:butt;stroke-linejoin:miter;stroke-opacity:1"
       d="m 239.49678,0 c 0.73616,240.29529 0.73616,240.29529 0.73616,240.29529 L 0,240.29529"
       id="path3008"
       inkscape:connector-curvature="0"
       transform="translate(0,796.36162)" />
  </g>
  <g
     inkscape:groupmode="layer"
     id="layer3"
     inkscape:label="Calque" />
</svg>
