<?xml version="1.0" encoding="UTF-8" standalone="no"?>
<!-- Created with Inkscape (http://www.inkscape.org/) -->

<svg
   xmlns:dc="http://purl.org/dc/elements/1.1/"
   xmlns:cc="http://creativecommons.org/ns#"
   xmlns:rdf="http://www.w3.org/1999/02/22-rdf-syntax-ns#"
   xmlns:svg="http://www.w3.org/2000/svg"
   xmlns="http://www.w3.org/2000/svg"
   xmlns:sodipodi="http://sodipodi.sourceforge.net/DTD/sodipodi-0.dtd"
   xmlns:inkscape="http://www.inkscape.org/namespaces/inkscape"
   width="256"
   height="256"
   id="svg2"
   version="1.1"
   inkscape:version="0.48.4 r9939"
   sodipodi:docname="PatternWall3.svg"
   inkscape:export-filename="C:\Users\Piccool\Documents\GitHub\OrangeLord\resources\images\testownwall3.png"
   inkscape:export-xdpi="90"
   inkscape:export-ydpi="90">
  <defs
     id="defs4" />
  <sodipodi:namedview
     id="base"
     pagecolor="#ffffff"
     bordercolor="#666666"
     borderopacity="1.0"
     inkscape:pageopacity="0.0"
     inkscape:pageshadow="2"
     inkscape:zoom="40.341254"
     inkscape:cx="144"
     inkscape:cy="47.99901"
     inkscape:document-units="px"
     inkscape:current-layer="layer2"
     showgrid="true"
     height="2979.92px"
     inkscape:window-width="511"
     inkscape:window-height="483"
     inkscape:window-x="375"
     inkscape:window-y="375"
     inkscape:window-maximized="0"
     gridtolerance="13"
     width="256px">
    <inkscape:grid
       type="xygrid"
       id="grid2986"
       empspacing="1"
       visible="true"
       enabled="true"
       snapvisiblegridlinesonly="true"
       dotted="false" />
  </sodipodi:namedview>
  <metadata
     id="metadata7">
    <rdf:RDF>
      <cc:Work
         rdf:about="">
        <dc:format>image/svg+xml</dc:format>
        <dc:type
           rdf:resource="http://purl.org/dc/dcmitype/StillImage" />
        <dc:title></dc:title>
      </cc:Work>
    </rdf:RDF>
  </metadata>
  <g
     inkscape:label="Calque 1"
     inkscape:groupmode="layer"
     id="layer1"
     transform="translate(0,-796.36162)" />
  <g
     inkscape:groupmode="layer"
     id="layer2"
     inkscape:label="Mur"
     transform="translate(0,-796.36162)">
    <path
       style="fill:#000000"
       d="m 222.52963,827.8475 c -3.18048,-20.06586 -11.01896,-19.92381 -14.21927,-16.47794 -4.27486,0.41362 -7.35388,-3.7003 -7.11675,-5.34236 0.0311,-3.66736 -0.84982,-5.95517 -5.27996,-6.66133 -1.21375,-0.16284 -2.47408,-0.38067 -2.80075,-0.48405 -0.72474,-0.22936 -1.08721,-0.8555 -1.00381,-1.73404 L 192,796.36162 l 15.99848,0 16.00152,0 0,16.02205 0,15.97795 -0.32311,0.0159 c -0.24477,0.012 -0.76119,-0.23844 -1.14698,-0.52988 z"
       id="path3108"
       inkscape:connector-curvature="0"
       sodipodi:nodetypes="cccccccccccscc" />
    <path
       style="fill:#000000"
       d="m 128.63043,890.64008 c 1.22605,-1.52879 3.18997,-1.9644 4.28524,-3.19861 3.05927,-2.51932 3.45679,-4.38661 5.29061,-7.94682 3.09411,-3.90491 10.8778,-6.80103 12.65521,-7.73788 3.27742,-2.06985 6.08728,-6.81354 6.79209,-10.42181 0.22983,-0.72198 0.90508,-0.76881 1.78537,-0.68573 L 160,860.36162 l 0,16.07419 0,15.92581 -15.87482,0 -16.12518,0 0.0996,-0.57897 c 0.0414,-0.24063 0.23892,-0.7583 0.53093,-1.14263 z"
       id="path3108-1"
       inkscape:connector-curvature="0"
       sodipodi:nodetypes="cccccccccccscc" />
    <path
       style="fill:#000000"
       d="m 1.5658916,989.13716 c 1.533769,1.21856 1.9771457,3.18003 3.2150676,4.26878 0.604987,0.52667 1.4147323,1.43221 1.7994317,2.01231 1.1635665,1.75456 0.8728784,1.65218 4.6934061,1.65299 2.105394,0.4113 2.927781,2.96816 4.444425,5.09396 0.915236,1.9292 1.125005,1.832 2.579038,1.9306 1.708795,-0.2323 2.611193,1.1098 3.952665,1.532 1.609717,0.7133 2.438129,2.4657 3.104061,3.9689 2.422629,4.2872 0.840829,5.7126 5.667825,8.4526 0.725695,0.2289 1.061697,0.7795 0.978189,1.6564 l 0,0.6559 -16.019884,0 -15.980116,0 0,-15.6404 0,-16.35958 0.37628502,0 c 0.24512353,0 0.80336628,0.48493 1.18967388,0.77582 z"
       id="path3108-1-7"
       inkscape:connector-curvature="0"
       sodipodi:nodetypes="ccsccccccccccccscc" />
    <path
       style="fill:#000000"
       d="m 95.768537,926.15752 c -1.228995,1.5294 -3.195614,1.96385 -4.293491,3.19861 -0.529718,0.60189 -1.4405,1.40749 -2.023958,1.79022 -1.970881,6.11522 -9.165814,1.2405 -15.07151,7.26869 -7.049358,6.43161 -5.797783,7.89991 -7.689956,17.04761 -0.230266,0.72198 -0.569024,0.85668 -1.451,0.7736 C 64.602964,955.79256 64.344743,956.3953 64,956.36162 l 0,-15.87589 0,-16.12411 16.244037,0 15.755963,0 -0.09292,1.08557 c -0.02082,0.24327 -0.07372,0.42898 -0.138628,0.7104 z"
       id="path3108-1-7-4"
       inkscape:connector-curvature="0"
       sodipodi:nodetypes="cccccccccccscc" />
    <path
       style="fill:#000000"
       d="m 157.42653,827.82186 c -1.19898,-0.45011 -1.28844,-0.5348 -3.0284,-2.8667 -0.61394,-0.82281 -1.09674,-1.2353 -1.84873,-1.57955 -0.55979,-0.25625 -1.41378,-0.68548 -1.89774,-0.95384 -1.10726,-0.61396 -1.30694,-0.60989 -2.80821,0.0573 -0.67474,0.29988 -1.47638,0.60662 -1.7814,0.68166 -0.68248,0.16789 -1.8281,-0.17977 -2.07353,-0.62925 -0.10005,-0.18324 -0.31979,-1.30206 -0.4883,-2.48625 -0.16852,-1.1842 -0.41691,-2.32656 -0.55201,-2.53859 -0.33324,-0.52301 -1.42279,-0.89369 -3.89237,-1.32424 -2.12468,-0.37043 -3.17564,-0.77946 -4.64419,-1.80754 l -0.83392,-0.58379 0,-1.416 c 0,-0.82158 0.12316,-1.70491 0.29338,-2.10424 0.4303,-1.00941 5.43271,-5.75153 7.46644,-7.07795 1.9829,-1.29326 2.58281,-1.5564 3.96202,-1.73787 1.36548,-0.17966 2.12807,-0.71718 3.19066,-2.24895 0.48564,-0.70008 1.04036,-1.37083 1.23271,-1.49057 0.19235,-0.11975 2.09076,-0.38493 4.21867,-0.58931 2.12792,-0.20437 4.17741,-0.46152 4.5544,-0.57145 0.37701,-0.10992 0.88472,-0.19986 1.12826,-0.19986 l 0.37573,0.007 0,15.95607 0,16.04393 -0.66874,0 c -0.40469,-0.005 -1.26181,-0.2985 -1.9047,-0.53985 z"
       id="path3214"
       inkscape:connector-curvature="0"
       sodipodi:nodetypes="cscccccsssscscssscscscccccc" />
    <path
       style="fill:#000000"
       d="m 0.38528613,889.70819 c 0.45436454,-1.23861 0.53984458,-1.33103 2.89377447,-3.12849 0.8305806,-0.63424 1.2469764,-1.13299 1.5944784,-1.90984 0.2586722,-0.57829 0.6919571,-1.4605 0.9628485,-1.96046 0.6197628,-1.14386 0.6156506,-1.35014 -0.057866,-2.90102 -0.3027103,-0.69705 -0.612352,-1.52518 -0.6880998,-1.84028 -0.1694722,-0.70504 0.1814647,-1.88852 0.6351922,-2.14207 0.18498,-0.10335 1.3143644,-0.33036 2.5097454,-0.50443 1.195381,-0.17409 2.3485357,-0.43069 2.5625627,-0.57026 0.527949,-0.34425 1.697874,-0.47833 2.13249,-3.02953 0.373927,-2.19492 0.587893,-2.09083 1.625679,-3.60793 l 0.98719,-1.85295 2.225116,-1.18978 c 0.730829,-0.39078 1.919953,0.72212 2.323054,0.89797 1.018949,0.44452 3.816531,5.01738 5.155478,7.11833 1.305475,2.04843 1.571098,2.66816 1.754288,4.09297 0.181357,1.41061 0.723951,2.19841 2.270202,3.29611 0.706683,0.5017 1.383778,1.07475 1.504651,1.27346 0.120872,0.19871 0.388562,2.15986 0.594865,4.3581 0.206305,2.19825 0.135514,4.31547 0.246479,4.70494 0.110963,0.38947 0.210438,0.82937 0.304992,1.06263 L 32,892.36162 l -15.964084,0 -16.035916,0 0.09751313,-0.68577 c 0.005919,-0.41807 0.04416156,-1.30352 0.28778554,-1.96766 z"
       id="path3214-0"
       inkscape:connector-curvature="0"
       sodipodi:nodetypes="cscssccccsccsssscsssscccccc" />
    <path
       style="fill:#000000"
       d="m 95.583467,799.02339 c -0.45156,1.2027 -0.53652,1.29244 -2.87594,3.03781 -0.82546,0.61585 -1.23928,1.10015 -1.58464,1.85448 -0.25708,0.56153 -0.68769,1.41817 -0.95691,1.90363 -0.61594,1.11071 -0.61186,1.31101 0.0575,2.81694 0.30085,0.67684 0.60858,1.48097 0.68386,1.78694 0.16843,0.6846 -0.18035,1.83378 -0.63128,2.07997 -0.18383,0.10036 -1.30626,0.32079 -2.49427,0.48982 -1.18801,0.16904 -2.33405,0.41821 -2.54677,0.55373 -0.52469,0.33427 -0.89657,1.42721 -1.32851,3.90446 -0.37162,2.13129 -0.78197,3.18551 -1.81336,4.65863 l -0.58568,0.83651 -1.42056,0 c -0.82423,0 -1.71041,-0.12354 -2.11102,-0.29429 -1.01267,-0.43164 -5.77007,-5.4496 -7.10077,-7.48965 -1.29743,-1.98906 -1.56141,-2.59083 -1.74347,-3.97433 -0.18024,-1.36973 -0.71949,-2.13469 -2.2562,-3.20058 -0.702337,-0.48715 -1.375249,-1.04359 -1.495375,-1.23654 -0.120136,-0.19295 -0.386171,-2.09726 -0.59121,-4.23178 -0.205028,-2.13453 -0.463006,-4.19039 -0.573292,-4.56856 -0.110274,-0.37818 -0.200504,-0.88747 -0.200504,-1.13176 L 64,796.36162 80.029347,796.37467 96,796.36162 l 0.03362,0.75115 c -0.005,0.40595 -0.20806,1.26573 -0.45019,1.91062 z"
       id="path3214-9"
       inkscape:connector-curvature="0"
       sodipodi:nodetypes="csccsscsssscscssscscscccccc" />
    <path
       style="fill:#000000"
       d="m 64.33734,891.28361 c 0,-0.96668 0.08087,-1.17252 0.857143,-2.18177 0.471428,-0.61293 0.886917,-1.18032 0.923306,-1.26091 0.03639,-0.0806 0.614756,-0.63524 1.285254,-1.23262 0.828131,-0.73782 1.482671,-1.14998 2.041001,-1.28529 0.45204,-0.10954 1.10618,-0.33952 1.45364,-0.51107 0.62037,-0.30628 0.63173,-0.33534 0.63173,-1.61585 0,-1.41202 -0.0525,-1.47758 -1.40926,-1.76123 -0.3671,-0.0767 -0.53455,-0.2309 -0.53455,-0.49216 0,-0.2214 -0.20311,-0.47082 -0.48595,-0.59678 -0.26725,-0.11903 -0.48729,-0.26679 -0.48895,-0.32838 -0.0513,-1.90941 -0.4641,-6.03125 -0.66763,-6.66604 -0.180797,-0.56388 -0.319339,-2.33092 -0.40699,-5.19102 -0.11564,-3.77345 -0.174159,-4.34948 -0.450937,-4.43897 -1.030149,-0.33303 -2.673232,-1.29255 -2.842893,-1.64512 C 64.132837,861.849 63.930936,861.4841 64,861.21518 l 0,-0.85356 16.085854,0 15.914146,0 0.02131,0.83634 c 0.01094,0.42914 -0.1162,0.61779 -0.45944,0.74532 -0.6052,0.2249 -0.70684,0.53666 -0.70684,2.16826 0,1.84485 -0.54236,6.01844 -0.82541,6.35178 -0.12541,0.14769 -0.73472,0.60481 -1.35403,1.01583 -0.61928,0.41103 -1.25349,0.9375 -1.40932,1.16994 -0.18005,0.26857 -0.36155,1.39125 -0.49787,3.07966 l -0.2145,2.65703 -0.66795,0.63908 -0.66795,0.63907 0,2.0525 c 0,1.12888 0.0546,2.19137 0.12115,2.36109 0.0667,0.16972 0.44941,0.47223 0.85059,0.67228 0.40118,0.20002 0.90949,0.66196 1.12959,1.02654 0.2201,0.36459 0.75335,0.83896 1.18501,1.05419 1.26684,0.63164 2.12889,1.48374 2.36386,2.33652 0.11713,0.42514 0.47552,1.09229 0.79642,1.48255 0.36811,0.44767 0.22476,0.88498 0.31139,1.15687 L 96,892.36162 l -15.669156,0 -16.330844,0 z"
       id="path3268"
       inkscape:connector-curvature="0"
       sodipodi:nodetypes="cscscsscsccssccccccscscccscccsccssscscccc" />
    <path
       style="fill:#000000"
       d="m 128.79633,924.56956 c 0.99095,0 1.20195,0.0805 2.23653,0.85329 0.62832,0.46931 1.20994,0.88294 1.29256,0.91916 0.0827,0.0362 0.65118,0.612 1.26355,1.27949 0.75634,0.82441 1.17885,1.47601 1.31755,2.03183 0.11229,0.45001 0.34805,1.10122 0.5239,1.44711 0.31397,0.61759 0.34375,0.6289 1.65641,0.6289 1.44746,0 1.51466,-0.0522 1.80542,-1.40293 0.0786,-0.36545 0.23671,-0.53215 0.50451,-0.53215 0.22697,0 0.48266,-0.2022 0.61176,-0.48377 0.12202,-0.26606 0.27348,-0.48511 0.33663,-0.48675 1.95733,-0.051 6.18262,-0.46202 6.83335,-0.66464 0.57802,-0.17998 2.38942,-0.3179 5.32129,-0.40516 3.86815,-0.11512 4.45864,-0.17338 4.55038,-0.44891 0.34138,-1.02553 1.43806,-2.13697 1.79948,-2.30587 0.2331,-0.10893 0.59958,-0.70634 0.87526,-0.63754 l 0.27509,0 0,16.00967 0,15.99033 -0.36295,-5e-5 c -0.43936,-6e-5 -0.63328,-0.36595 -0.76402,-0.70764 -0.23054,-0.60248 -0.55012,-0.70367 -2.22267,-0.70367 -1.89116,0 -6.1695,-0.53992 -6.51119,-0.8217 -0.15141,-0.12485 -0.61999,-0.73142 -1.04133,-1.34795 -0.42135,-0.61651 -0.96104,-1.24787 -1.19931,-1.403 -0.27531,-0.17924 -1.42618,-0.35992 -3.15696,-0.49563 l -2.72371,-0.21354 -0.65511,-0.66495 -1.05171,-0.46665 -1.70742,-0.1983 c -1.14948,-0.1335 -2.24638,0.0543 -2.42034,0.12061 -0.17398,0.0664 -0.48409,0.44739 -0.68915,0.84677 -0.20504,0.39938 -0.67858,0.90541 -1.05231,1.12452 -0.37373,0.21911 -0.86002,0.74997 -1.08065,1.17969 -0.64748,1.26115 -1.52097,2.11933 -2.39517,2.35324 -0.4358,0.11661 -1.11969,0.47339 -1.51975,0.79285 -0.45891,0.36645 -0.8966,0.64608 -1.1859,0.6054 l -0.26035,0 0,-15.97285 0,-16.02715 0.34824,-5e-5 z"
       id="path3268-4"
       inkscape:connector-curvature="0"
       sodipodi:nodetypes="cccscsscsccsscsccccsssccsscccsccsssccccccc" />
    <path
       style="fill:#000000"
       d="m 2.9027234,956.09509 c 1.2441661,-0.45291 1.2336281,-0.31171 3.039151,-2.6581 0.6370851,-0.82792 1.1380724,-1.24298 1.9184071,-1.58936 0.5808841,-0.25785 1.4670515,-0.68974 1.9692542,-0.95977 1.1489913,-0.61777 1.3561963,-0.61367 2.9140333,0.0577 0.700177,0.30174 1.532021,0.61039 1.848535,0.6859 0.708202,0.16893 1.896991,-0.18089 2.151679,-0.63316 0.103813,-0.18439 0.331842,-1.31015 0.506692,-2.5017 0.174871,-1.19155 0.432622,-2.34101 0.572818,-2.55435 0.345795,-0.52625 0.480476,-1.69243 3.04312,-2.12565 2.204766,-0.37273 2.100209,-0.58601 3.624114,-1.62047 l 1.861262,-0.98402 c 1.197372,-1.80209 1.502957,-2.74718 0.293119,-4.53359 -0.446514,-1.01569 -5.039886,-3.8043 -7.150261,-5.13896 -2.057619,-1.30129 -2.680128,-1.56606 -4.11133,-1.74866 -1.416938,-0.18078 -2.208271,-0.72163 -3.310895,-2.26292 -0.503951,-0.70442 -1.079571,-1.37935 -1.279173,-1.49983 -0.199601,-0.12049 -2.1695482,-0.38732 -4.377649,-0.59296 -2.2081108,-0.20564 -4.3348282,-0.46439 -4.7260453,-0.575 -0.391217,-0.11061 -0.91805978,-0.20111 -1.17076831,-0.20111 L 0,924.36162 l 0,16.46234 0,15.53766 1.6291711,-0.20607 c 0.4199453,-0.006 0.6064332,0.18239 1.2735523,-0.0605 z"
       id="path3214-0-8"
       inkscape:connector-curvature="0"
       sodipodi:nodetypes="cscssccccscccsscsssscccccc" />
    <rect
       style="fill:#000000"
       id="rect3306"
       width="33.717701"
       height="33.963085"
       x="191.36365"
       y="987.62549" />
    <path
       style="fill:#000000"
       d="m 128,1004.3512 0,-15.98958 1.43668,0.42152 c 2.25016,1.15243 7.35758,1.40652 9.33205,3.45797 0.53944,1.1812 2.89872,0.88126 6.26623,1.20057 2.47373,-0.0758 1.46636,-1.00873 3.60784,-0.99281 4.38666,2.02847 4.49397,3.52743 7.24477,0.20315 -0.014,-1.81766 1.02171,-1.76299 2.00113,-2.86937 0.77156,-0.79166 1.04566,-0.60422 1.39971,-0.87561 L 160,988.36157 l 0,16.17973 -0.0121,15.8122 -15.96197,0.01 -16.02591,0 z"
       id="path3316"
       inkscape:connector-curvature="0"
       sodipodi:nodetypes="ccccccccscccccc" />
    <path
       style="fill:#000000"
       d="m 80.210187,988.36162 15.789813,0 -1.11512,1.12448 c -2.950492,2.20695 -0.155331,3.91766 -0.964928,7.16587 -0.755302,2.31275 0.73693,4.16833 -2.467536,7.09223 -1.371766,2.3122 -3.005745,5.1918 -1.933775,7.0347 3.778466,4.1818 2.21315,4.5166 5.075245,7.4927 0.918573,0.8697 0.671473,1.6749 1.406111,2.09 l -16.279192,0 -15.720808,0 0,-15.9465 0,-16.05348 z"
       id="path3316-8"
       inkscape:connector-curvature="0"
       sodipodi:nodetypes="ccccccccccccc" />
    <path
       style="fill:#000000"
       d="m 224,940.52682 0,15.8348 -0.45395,-0.0492 c -0.84566,-0.0916 -2.5251,-0.68531 -2.6038,-0.88372 -1.20509,-0.24207 -0.0361,-0.39661 -2.32626,-0.53503 -2.87801,-0.20199 -3.08627,-3.52467 -4.63549,-4.34135 -2.7095,-3.03891 -4.41076,-1.83337 -8.20821,-2.70498 -2.50648,0.16999 -2.93579,1.84643 -4.64238,1.80964 -3.75603,1.58081 -5.51929,3.82611 -8.21221,6.42583 l -0.9177,0.27881 0,-16.18886 0,-15.81114 16.31267,0 15.68733,0 z"
       id="path3316-8-2"
       inkscape:connector-curvature="0"
       sodipodi:nodetypes="ccscccccccccccc" />
    <path
       style="fill:#000000"
       d="m 208.14598,892.36162 -16.14598,0 0.10361,-1.01227 c 0.085,-0.83041 1.72299,-0.67769 2.2705,-2.06862 0.71996,-1.3241 -0.0101,-2.10825 1.8153,-4.18205 2.98278,-3.87564 3.07531,-3.64074 3.46333,-7.64352 -0.63696,-2.67032 0.97187,-4.8948 0.91042,-6.27658 -0.22717,-2.69906 -0.67102,-3.08042 -1.58901,-4.94885 -0.50835,-1.00035 -0.30265,-1.90989 -1.78275,-2.18411 -2.03509,0.10621 -2.48599,-0.34288 -3.67891,-1.58895 -0.64948,-0.6644 -1.05964,-1.33826 -1.51249,-2.09505 l 16.33692,0 15.66308,0 0,16.03896 0,15.96104 z"
       id="path3316-8-2-4"
       inkscape:connector-curvature="0"
       sodipodi:nodetypes="ccsccccccccccccc" />
    <path
       style="fill:#000000"
       d="m 16.31645,820.18435 c -0.246214,-0.27207 -0.328177,-0.74818 -0.328177,-1.90633 l -0.793184,-0.15562 -1.922829,-0.25693 c -0.675794,-0.0903 0.576713,-0.62397 -0.148722,-0.0264 -1.740697,1.43386 -2.25417,1.60864 -4.6694648,1.58941 -1.172776,-0.009 -2.232799,-0.0791 -2.355606,-0.15497 -0.319001,-0.19715 -0.275908,-1.92317 0.0686,-2.7477 0.241474,-0.57793 0.246529,-0.73623 0.02927,-0.91654 -0.165273,-0.13716 -0.312364,-0.93461 -0.396824,-2.15135 -0.103142,-1.48587 -0.215045,-2.00224 -0.483449,-2.23084 -0.670008,-0.57063 -1.087442,-2.37859 -0.987746,-4.27804 0.09078,-1.72955 0.09473,-1.74057 0.850982,-2.37548 l 0.759783,-0.63788 3.471664,-0.14463 c 2.8558188,-0.11897 3.5800548,-0.20992 4.0826888,-0.51271 1.912248,-1.15194 2.003996,-1.17287 5.141466,-1.17287 l 2.968729,0 0.820014,0.89316 c 1.320351,1.43814 1.465565,2.17925 1.612306,8.22845 0.07011,2.89016 0.211715,5.41474 0.314678,5.61016 0.263115,0.4994 0.246271,2.1667 -0.03036,3.00489 l -0.232625,0.70486 -3.721512,0 c -3.353504,0 -3.753962,-0.0359 -4.049682,-0.36263 z"
       id="path3378"
       inkscape:connector-curvature="0"
       sodipodi:nodetypes="cscssccscscsscssscsscscsc" />
    <path
       style="fill:none;stroke:#000000;stroke-width:1px;stroke-linecap:butt;stroke-linejoin:miter;stroke-opacity:1"
       d="m 239.49678,0 c 0.73616,240.29529 0.73616,240.29529 0.73616,240.29529 L 0,240.29529"
       id="path3008"
       inkscape:connector-curvature="0"
       transform="translate(0,796.36162)" />
  </g>
  <g
     inkscape:groupmode="layer"
     id="layer3"
     inkscape:label="Calque" />
</svg>
