<?xml version="1.0" encoding="UTF-8" standalone="no"?>
<!-- Created with Inkscape (http://www.inkscape.org/) -->

<svg
   xmlns:dc="http://purl.org/dc/elements/1.1/"
   xmlns:cc="http://creativecommons.org/ns#"
   xmlns:rdf="http://www.w3.org/1999/02/22-rdf-syntax-ns#"
   xmlns:svg="http://www.w3.org/2000/svg"
   xmlns="http://www.w3.org/2000/svg"
   xmlns:sodipodi="http://sodipodi.sourceforge.net/DTD/sodipodi-0.dtd"
   xmlns:inkscape="http://www.inkscape.org/namespaces/inkscape"
   width="256"
   height="256"
   id="svg2"
   version="1.1"
   inkscape:version="0.48.4 r9939"
   sodipodi:docname="PatternDoor1.svg"
   inkscape:export-filename="C:\Users\Piccool\Documents\GitHub\OrangeLord\resources\images\doors.png"
   inkscape:export-xdpi="90"
   inkscape:export-ydpi="90">
  <defs
     id="defs4">
    <inkscape:path-effect
       effect="spiro"
       id="path-effect3030"
       is_visible="true" />
    <inkscape:path-effect
       effect="spiro"
       id="path-effect3018"
       is_visible="true" />
  </defs>
  <sodipodi:namedview
     id="base"
     pagecolor="#ffffff"
     bordercolor="#666666"
     borderopacity="1.0"
     inkscape:pageopacity="0.0"
     inkscape:pageshadow="2"
     inkscape:zoom="48.987413"
     inkscape:cx="83.276357"
     inkscape:cy="179.46982"
     inkscape:document-units="px"
     inkscape:current-layer="layer2"
     showgrid="true"
     height="2979.92px"
     inkscape:window-width="2560"
     inkscape:window-height="1538"
     inkscape:window-x="-8"
     inkscape:window-y="-8"
     inkscape:window-maximized="1"
     gridtolerance="13"
     width="256px">
    <inkscape:grid
       type="xygrid"
       id="grid2986"
       empspacing="1"
       visible="true"
       enabled="true"
       snapvisiblegridlinesonly="true"
       dotted="false" />
  </sodipodi:namedview>
  <metadata
     id="metadata7">
    <rdf:RDF>
      <cc:Work
         rdf:about="">
        <dc:format>image/svg+xml</dc:format>
        <dc:type
           rdf:resource="http://purl.org/dc/dcmitype/StillImage" />
        <dc:title></dc:title>
      </cc:Work>
    </rdf:RDF>
  </metadata>
  <g
     inkscape:label="Calque 1"
     inkscape:groupmode="layer"
     id="layer1"
     transform="translate(0,-796.36162)" />
  <g
     inkscape:groupmode="layer"
     id="layer2"
     inkscape:label="Mur"
     transform="translate(0,-796.36162)">
    <path
       style="fill:#a05a2c"
       d="m 66.560373,811.90457 c 0,0.65625 0,1.59829 0,2.25454 1.09896,0 2.19792,0 3.29688,0 1.09895,0 1.85088,-0.55116 3.29687,0 1.02689,0.39142 2.20191,0.0935 3.29688,0 0.95606,-0.0816 2.15708,-0.3062 3.29687,0 1.06133,0.28513 2.19792,0 3.29687,0 1.09896,0 2.07544,-0.28579 3.29688,0 1.07006,0.25037 2.2949,0.45139 3.29687,0 0.9969,-0.44909 2.19792,0 3.29688,0 0.0729,-0.75 0.14583,-1.5 0.21875,-2.25 -1.11318,0.11889 -2.22832,0.3744 -3.33594,0.26904 -1.27417,-0.12122 -2.22069,0.0999 -3.32972,0.11832 -1.10903,0.0184 -2.21726,0.0179 -3.32494,0.005 -1.10767,-0.0134 -2.21479,0.22573 -3.32159,-0.0726 -1.06913,-0.28815 -2.26013,-0.43385 -3.31967,-0.11276 -1.14723,0.34766 -2.21272,-0.0809 -3.31919,-0.11611 -1.10648,-0.0352 -2.21312,0.26186 -3.32016,-0.0826 -1.05717,-0.32897 -2.21447,-0.024 -3.32254,-0.0123 z"
       id="rect3074-1"
       inkscape:connector-curvature="0"
       sodipodi:nodetypes="ccsssssssccssssssscc" />
    <rect
       style="fill:#a05a2c"
       id="rect3074-4-0-5"
       width="2.2428687"
       height="4.2989016"
       x="875.2818"
       y="-94.288742"
       transform="matrix(5.9674248e-6,1,-0.99999997,2.2426187e-4,0,0)"
       ry="1.1214343" />
    <rect
       style="fill:#a05a2c"
       id="rect3074-9-5"
       width="2.2428687"
       height="4.4857388"
       x="14.79584"
       y="862.76392"
       ry="1.0410837" />
    <path
       style="fill:#a05a2c"
       d="m 15.870462,825.65625 c 0.65625,0 1.598288,0 2.254538,0 0,-1.09896 0,-2.19792 0,-3.29688 0,-1.09895 -0.551162,-1.85088 0,-3.29687 0.391417,-1.02689 0.09352,-2.20191 0,-3.29688 -0.08165,-0.95606 -0.306201,-2.15708 0,-3.29687 0.285123,-1.06133 0,-2.19792 0,-3.29687 0,-1.09896 -0.285788,-2.07544 0,-3.29688 0.250368,-1.07006 0.451386,-2.2949 0,-3.29687 -0.449095,-0.9969 0,-2.19792 0,-3.29688 -0.75,-0.0729 -1.5,-0.14583 -2.25,-0.21875 0.118889,1.11318 0.3744,2.22832 0.269033,3.33594 -0.121211,1.27417 0.09991,2.22069 0.118325,3.32972 0.01842,1.10903 0.01786,2.21726 0.0045,3.32494 -0.0134,1.10767 0.225734,2.21479 -0.07257,3.32159 -0.288151,1.06913 -0.433854,2.26013 -0.112761,3.31967 0.347665,1.14723 -0.08094,2.21272 -0.11611,3.31919 -0.03517,1.10648 0.261865,2.21312 -0.08262,3.32016 -0.328967,1.05717 -0.02401,2.21447 -0.01229,3.32254 z"
       id="rect3074"
       inkscape:connector-curvature="0"
       sodipodi:nodetypes="ccsssssssccssssssscc" />
    <path
       style="fill:none;stroke:#000000;stroke-width:1px;stroke-linecap:butt;stroke-linejoin:miter;stroke-opacity:1"
       d="m 239.49678,0 c 0.73616,240.29529 0.73616,240.29529 0.73616,240.29529 L 0,240.29529"
       id="path3008"
       inkscape:connector-curvature="0"
       transform="translate(0,796.36162)" />
    <path
       style="fill:#000000"
       d="m 0.72484839,826.48578 c -0.25597052,-0.90111 -0.2535456,-0.94104 0.71823371,-1.05764 0.6623939,-0.0795 0.3257557,0.3108 1.895391,0.71964 0.6280803,0.16359 1.0951676,-1.21283 2.0904514,-1.21283 1.7869635,0 2.1129227,1.22306 3.0488612,0.49364 0.8442936,-0.65778 0.5006067,-1.11778 1.7157493,-1.18644 l 1.205134,-0.0506 1.665795,0.22532 c 2.11118,0.28557 2.276279,1.50356 4.054799,0.31976 0.654376,-0.43555 1.890777,0.18815 2.083685,0.1878 0.192908,-3.5e-4 1.081991,0.63741 1.862394,0.36475 1.830565,-0.63956 1.936336,-0.79682 3.303708,-0.0891 0.615111,0.31836 1.658656,-0.99496 2.367564,-0.8783 0.770875,0.12687 1.886672,0.52115 2.776142,0.98099 0.817971,0.42287 0.404993,1.02291 0.814817,1.15532 C 31.436906,826.81646 32,827.53143 32,828.36162 c -0.513648,0 -5.284287,0 -16.047343,0 l -15.952657,0 0.48638449,-1.16045 z"
       id="path3026"
       inkscape:connector-curvature="0"
       sodipodi:nodetypes="cssscccssssscsccsccc" />
    <path
       style="fill:#000000"
       d="M 21.812548,2.7364449 C 21.376297,2.6710284 20.528582,2.357624 19.928737,2.0399904 18.922571,1.507199 18.668081,1.4611296 16.642556,1.4451027 14.537791,1.4284488 14.413102,1.4511472 13.627192,1.9940193 L 12.807382,2.5603082 9.2789814,2.3284626 C 7.1974279,2.1916871 5.5355029,1.9884828 5.2260738,1.8329119 4.8809878,1.6594139 4.270498,1.6017957 3.4414108,1.6644752 2.1996123,1.7583558 2.176334,1.7508258 1.8434598,1.1475713 l -0.337795,-0.61217238 14.0735632,0 14.073563,0 -0.130342,0.54531368 c -0.195527,0.8180349 -0.229386,0.8427576 -1.15423,0.8427576 -0.471362,0 -1.449696,0.2230829 -2.174079,0.4957397 -1.326954,0.4994639 -2.567406,0.5892749 -4.381592,0.317235 l 0,0 z"
       id="path3034"
       inkscape:connector-curvature="0"
       transform="translate(0,796.36162)" />
    <path
       style="fill:#000000"
       d="m 21.471134,800.8564 c -0.4838,-0.0769 -1.293803,-0.38288 -1.800006,-0.67989 -0.742888,-0.43587 -1.252359,-0.56183 -2.641924,-0.65315 -1.68458,-0.11072 -1.735977,-0.10087 -2.393353,0.4585 -0.653938,0.55645 -0.726638,0.57082 -2.73363,0.54036 -1.134005,-0.0172 -3.4425927,-0.6842 -4.7327251,-0.81444 -1.2901324,-0.13024 -1.7617953,-0.99375 -2.7493145,-1.04447 -1.7720605,-0.091 -2.1797518,0.0827 -2.2965949,-0.45692 -0.065113,-0.30074 -1.55768613,0.23389 -1.86944786,-0.53618 C 0,797.04248 0.05416868,796.29544 0,796.36162 c -0.02135236,0.0261 32,-0.15276 32,0 0,0.5087 -0.02139,1.03033 -0.613127,1.41575 -0.360333,0.2347 -0.672861,0.64949 -0.765613,1.01612 -0.221934,0.87726 -0.630707,1.1422 -1.993907,1.29233 -0.656834,0.0723 -1.678044,0.31579 -2.269354,0.541 -1.119542,0.42641 -3.0721,0.51814 -4.886865,0.22958 z"
       id="path3036"
       inkscape:connector-curvature="0"
       sodipodi:nodetypes="ssssssssssssssss" />
    <path
       style="fill:#000000"
       d="m 94.121211,827.68466 c -0.901757,0.25368 -0.941681,0.25115 -1.055812,-0.72092 -0.07782,-0.66259 0.311626,-0.32496 0.724451,-1.89356 0.165184,-0.62766 -1.210045,-1.09824 -1.207518,-2.09352 0.0045,-1.78696 1.228422,-2.10981 0.501381,-3.0476 -0.655634,-0.84596 -1.116505,-0.50344 -1.182079,-1.71876 l -0.04754,-1.20525 0.229549,-1.66522 c 0.290931,-2.11045 1.509336,-2.27245 0.330056,-4.05398 -0.433886,-0.65548 0.192951,-1.89029 0.193091,-2.0832 1.4e-4,-0.1929 0.640156,-1.08037 0.369479,-1.86146 -0.63491,-1.83218 -0.791901,-1.93835 -0.08071,-3.30392 0.319921,-0.6143 -0.990745,-1.66118 -0.872285,-2.36979 0.128827,-0.77055 0.525939,-1.88534 0.988037,-2.77364 0.424946,-0.81689 1.023935,-0.40239 1.157385,-0.81188 0.361186,-1.10842 1.001117,-1.72245 1.831304,-1.72034 -0.0013,0.51365 0,5.46112 0,16.22418 l 0,15.77582 -1.164004,-0.43668 z"
       id="path3026-1"
       inkscape:connector-curvature="0"
       sodipodi:nodetypes="cssscccssssscsccsccc" />
    <path
       style="fill:#000000"
       d="m 68.584909,806.91775 c -0.0769,0.4838 -0.382873,1.29381 -0.679881,1.80001 -0.435865,0.74289 -0.561823,1.25236 -0.653136,2.64192 -0.110714,1.68458 -0.100862,1.73598 0.458514,2.39335 0.556453,0.65394 0.570823,0.72664 0.540374,2.73363 -0.01719,1.134 -0.684182,3.4426 -0.814414,4.73273 -0.130234,1.29014 -0.993741,1.7618 -1.044456,2.74933 -0.09099,1.77205 0.08271,2.17974 -0.456908,2.29659 -0.300739,0.0651 0.233899,1.55768 -0.53617,1.86945 -0.627728,0.25414 -1.465012,0.17268 -1.398832,0.22686 0.0261,0.0214 -0.15276,-32 0,-32 0.508697,3.3e-4 1.120402,0.0487 1.505826,0.6404 0.234702,0.36034 0.649493,0.67286 1.016125,0.76561 0.87726,0.22193 1.142203,0.6307 1.29234,1.9939 0.07231,0.65684 0.315799,1.67805 0.541012,2.26935 0.426416,1.11955 0.518156,3.0721 0.229606,4.88687 z"
       id="path3036-7"
       inkscape:connector-curvature="0"
       sodipodi:nodetypes="ssssssssssssssss" />
    <rect
       style="fill:#a05a2c"
       id="rect3074-4-0"
       width="2.2428687"
       height="4.2989016"
       x="875.27618"
       y="-69.119041"
       transform="matrix(5.9674248e-6,1,-0.99999997,2.2426187e-4,0,0)"
       ry="0.95926529" />
    <rect
       style="fill:#a05a2c"
       id="rect3074-9"
       width="2.2428687"
       height="4.4857388"
       x="14.799026"
       y="886.21039"
       ry="1.1214343" />
    <path
       style="fill:#000000"
       d="m 0.75962494,890.63872 c -0.255971,-0.90111 -0.253546,-0.94104 0.71823296,-1.05764 0.662394,-0.0795 0.325756,0.3108 1.895391,0.71964 0.628081,0.16359 1.095168,-1.21283 2.0904519,-1.21283 1.7869635,0 2.1129227,1.22306 3.0488612,0.49364 0.8442936,-0.65778 0.5006067,-1.11778 1.71575,-1.18644 l 1.205134,-0.0506 1.665795,0.22532 c 2.11118,0.28557 2.276279,1.50356 4.054799,0.31976 0.654376,-0.43555 1.890777,0.18815 2.083685,0.1878 0.192908,-3.5e-4 1.081991,0.63741 1.862394,0.36475 1.830565,-0.63956 1.936336,-0.79682 3.303708,-0.0891 0.615111,0.31836 1.658656,-0.99496 2.367564,-0.8783 0.770875,0.12687 1.886672,0.52115 2.776142,0.98099 0.817971,0.42287 0.404993,1.02291 0.814817,1.15532 1.109333,0.35837 1.672427,1.07334 1.672427,1.90353 -0.513648,0 -5.284287,0 -16.047343,0 l -15.95265806,0 0.486385,-1.16045 z"
       id="path3026-4"
       inkscape:connector-curvature="0"
       sodipodi:nodetypes="cssscccssssscsccsccc" />
    <path
       style="fill:#000000"
       d="m 21.847325,863.25101 c -0.436251,-0.0654 -1.283966,-0.37882 -1.883811,-0.69646 -1.006166,-0.53279 -1.260656,-0.57886 -3.286181,-0.59488 -2.104765,-0.0167 -2.229454,0.006 -3.015364,0.54891 l -0.81981,0.56629 -3.5284013,-0.23184 c -2.0815535,-0.13678 -3.7434785,-0.33998 -4.0529076,-0.49555 -0.3450862,-0.1735 -0.9555762,-0.23112 -1.7846632,-0.16844 -1.241798,0.0939 -1.265077,0.0863 -1.597951,-0.51691 l -0.337795,-0.61217 14.0735641,0 14.073563,0 -0.130342,0.54532 c -0.195527,0.81803 -0.229386,0.84275 -1.15423,0.84275 -0.471362,0 -1.449696,0.22309 -2.174079,0.49574 -1.326954,0.49947 -2.567406,0.58928 -4.381592,0.31724 l 0,0 z"
       id="path3034-8"
       inkscape:connector-curvature="0" />
    <path
       style="fill:#000000"
       d="m 21.505911,865.00934 c -0.4838,-0.0769 -1.293803,-0.38288 -1.800006,-0.67989 -0.742888,-0.43587 -1.252359,-0.56183 -2.641924,-0.65315 -1.68458,-0.11072 -1.735977,-0.10087 -2.393353,0.4585 -0.653938,0.55645 -0.726638,0.57082 -2.73363,0.54036 -1.134005,-0.0172 -3.4425934,-0.6842 -4.7327258,-0.81444 -1.2901324,-0.13024 -1.7617953,-0.99375 -2.7493143,-1.04447 -1.772061,-0.091 -2.179752,0.0827 -2.296595,-0.45692 -0.06511,-0.30074 -1.55768596,0.23389 -1.86944796,-0.53618 -0.254139,-0.62773 -0.19997,-1.37477 -0.254139,-1.30859 -0.02135,0.0261 32.00000106,-0.15276 32.00000106,0 0,0.5087 -0.02139,1.03033 -0.613127,1.41575 -0.360333,0.2347 -0.672861,0.64949 -0.765613,1.01612 -0.221934,0.87726 -0.630707,1.1422 -1.993907,1.29233 -0.656834,0.0723 -1.678044,0.31579 -2.269354,0.541 -1.119542,0.42641 -3.0721,0.51814 -4.886865,0.22958 z"
       id="path3036-8"
       inkscape:connector-curvature="0"
       sodipodi:nodetypes="ssssssssssssssss" />
    <path
       style="fill:#000000"
       d="m 94.155988,891.8376 c -0.901757,0.25368 -0.941681,0.25115 -1.055812,-0.72092 -0.07782,-0.66259 0.311626,-0.32496 0.724451,-1.89356 0.165184,-0.62766 -1.210045,-1.09824 -1.207518,-2.09352 0.0045,-1.78696 1.228422,-2.10981 0.501381,-3.0476 -0.655634,-0.84596 -1.116505,-0.50344 -1.182079,-1.71876 l -0.04754,-1.20525 0.229549,-1.66522 c 0.290931,-2.11045 1.509336,-2.27245 0.330056,-4.05398 -0.433886,-0.65548 0.192951,-1.89029 0.193091,-2.0832 1.4e-4,-0.1929 0.640156,-1.08037 0.369479,-1.86146 -0.63491,-1.83218 -0.791901,-1.93835 -0.08071,-3.30392 0.319921,-0.6143 -0.990745,-1.66118 -0.872285,-2.36979 0.128827,-0.77055 0.525939,-1.88534 0.988037,-2.77364 0.424946,-0.81689 1.023935,-0.40239 1.157385,-0.81188 0.361186,-1.10842 1.001117,-1.72245 1.831304,-1.72034 -0.0013,0.51365 0,5.46112 0,16.22418 l 0,15.77582 -1.164004,-0.43668 z"
       id="path3026-1-2"
       inkscape:connector-curvature="0"
       sodipodi:nodetypes="cssscccssssscsccsccc" />
    <path
       style="fill:#000000"
       d="m 68.619686,871.07069 c -0.0769,0.4838 -0.382873,1.29381 -0.679881,1.80001 -0.435865,0.74289 -0.561823,1.25236 -0.653136,2.64192 -0.110714,1.68458 -0.100862,1.73598 0.458514,2.39335 0.556453,0.65394 0.570823,0.72664 0.540374,2.73363 -0.01719,1.134 -0.684182,3.4426 -0.814414,4.73273 -0.130234,1.29014 -0.993741,1.7618 -1.044456,2.74933 -0.09099,1.77205 0.08271,2.17974 -0.456908,2.29659 -0.300739,0.0651 0.233899,1.55768 -0.53617,1.86945 -0.627728,0.25414 -1.465012,0.17268 -1.398832,0.22686 0.0261,0.0214 -0.15276,-32 0,-32 0.508697,3.3e-4 1.120402,0.0487 1.505826,0.6404 0.234702,0.36034 0.649493,0.67286 1.016125,0.76561 0.87726,0.22193 1.142203,0.6307 1.29234,1.9939 0.07231,0.65684 0.315799,1.67805 0.541012,2.26935 0.426416,1.11955 0.518156,3.0721 0.229606,4.88687 z"
       id="path3036-7-4"
       inkscape:connector-curvature="0"
       sodipodi:nodetypes="ssssssssssssssss" />
  </g>
  <g
     inkscape:groupmode="layer"
     id="layer3"
     inkscape:label="Calque" />
</svg>
