<?xml version="1.0" encoding="UTF-8" standalone="no"?>
<!-- Created with Inkscape (http://www.inkscape.org/) -->

<svg
   xmlns:dc="http://purl.org/dc/elements/1.1/"
   xmlns:cc="http://creativecommons.org/ns#"
   xmlns:rdf="http://www.w3.org/1999/02/22-rdf-syntax-ns#"
   xmlns:svg="http://www.w3.org/2000/svg"
   xmlns="http://www.w3.org/2000/svg"
   xmlns:sodipodi="http://sodipodi.sourceforge.net/DTD/sodipodi-0.dtd"
   xmlns:inkscape="http://www.inkscape.org/namespaces/inkscape"
   width="256"
   height="256"
   id="svg2"
   version="1.1"
   inkscape:version="0.48.4 r9939"
   sodipodi:docname="test2.svg"
   inkscape:export-filename="C:\Users\Piccool\Documents\GitHub\OrangeLord\resources\images\testownwall.png"
   inkscape:export-xdpi="90"
   inkscape:export-ydpi="90">
  <defs
     id="defs4" />
  <sodipodi:namedview
     id="base"
     pagecolor="#ffffff"
     bordercolor="#666666"
     borderopacity="1.0"
     inkscape:pageopacity="0.0"
     inkscape:pageshadow="2"
     inkscape:zoom="40.343775"
     inkscape:cx="210.25221"
     inkscape:cy="248.27874"
     inkscape:document-units="px"
     inkscape:current-layer="layer2"
     showgrid="true"
     height="2979.92px"
     inkscape:window-width="2560"
     inkscape:window-height="1538"
     inkscape:window-x="-8"
     inkscape:window-y="-8"
     inkscape:window-maximized="1"
     gridtolerance="13"
     width="256px">
    <inkscape:grid
       type="xygrid"
       id="grid2986"
       empspacing="1"
       visible="true"
       enabled="true"
       snapvisiblegridlinesonly="true"
       dotted="false" />
  </sodipodi:namedview>
  <metadata
     id="metadata7">
    <rdf:RDF>
      <cc:Work
         rdf:about="">
        <dc:format>image/svg+xml</dc:format>
        <dc:type
           rdf:resource="http://purl.org/dc/dcmitype/StillImage" />
        <dc:title></dc:title>
      </cc:Work>
    </rdf:RDF>
  </metadata>
  <g
     inkscape:label="Calque 1"
     inkscape:groupmode="layer"
     id="layer1"
     transform="translate(0,-796.36162)" />
  <g
     inkscape:groupmode="layer"
     id="layer2"
     inkscape:label="Mur"
     transform="translate(0,-796.36162)">
    <path
       style="fill:#000000"
       d="m 222.52963,827.8475 c -0.89165,-0.67359 -1.62133,-1.67195 -1.89683,-2.59523 -0.14628,-0.49021 -0.56827,-1.03027 -1.31397,-1.68153 -0.60418,-0.52765 -1.41284,-1.43488 -1.79703,-2.01607 -1.16202,-1.75783 0.12354,-2.64861 -3.69191,-2.64943 -3.04339,-5.6e-4 -4.45184,0.95327 -5.01133,0.61081 -0.58602,-0.35878 -1.22013,-0.63115 -0.62964,-1.49257 4.7086,-6.869 -0.48623,-5.41136 -0.74031,-6.07236 -0.29106,-0.7572 -1.45574,-0.0455 -1.9499,0.38834 l -1.04576,0.9182 -2.78441,0.49796 -3.75798,-1.80979 -0.90307,-2.55922 c -0.50723,-1.37105 3.75069,-1.12246 3.98782,-2.76452 0.34527,-2.3911 -1.61905,-3.96213 -1.81337,-4.90194 -0.36854,-1.7826 -0.68006,-2.007 -3.26829,-2.35428 -1.21375,-0.16284 -2.47408,-0.38067 -2.80075,-0.48405 -0.72474,-0.22936 -1.08721,-0.8555 -1.00381,-1.73404 L 192,796.36162 l 15.99848,0 16.00152,0 0,16.02205 0,15.97795 -0.32311,0.0159 c -0.24477,0.012 -0.76119,-0.23844 -1.14698,-0.52988 z"
       id="path3108"
       inkscape:connector-curvature="0"
       sodipodi:nodetypes="cscsccscsccccccccccccccscc" />
    <path
       style="fill:#000000"
       d="m 128.63043,890.64008 c 0.67494,-0.88826 1.67526,-1.61518 2.60038,-1.88963 0.4912,-0.14572 1.03232,-0.56612 1.68486,-1.30898 0.52871,-0.60189 1.43774,-1.40749 2.02008,-1.79022 1.76133,-1.15761 1.65856,-0.86841 1.65937,-4.66938 5.7e-4,-3.03185 0.0401,-3.44347 0.38329,-4.00084 0.35948,-0.5838 0.44975,-0.62165 1.49554,-0.62725 1.49192,-0.008 5.4221,-0.48438 6.08441,-0.7375 0.75869,-0.28996 0.66727,-0.74634 -0.3891,-1.9425 l -0.92004,-1.0418 0.069,-2.91529 1.66146,-1.72551 1.39537,-0.69607 c 1.37376,-1.7e-4 2.8729,-0.32684 4.5182,-0.0906 2.39584,0.34396 2.9747,0.37006 3.91637,0.17648 1.78614,-0.36715 2.01098,-0.67749 2.35895,-3.2559 0.16316,-1.20915 0.38142,-2.46469 0.48501,-2.79013 0.22983,-0.72198 0.90508,-0.76881 1.78537,-0.68573 L 160,860.36162 l 0,16.07419 0,15.92581 -15.87482,0 -16.12518,0 0.0996,-0.57897 c 0.0414,-0.24063 0.23892,-0.7583 0.53093,-1.14263 z"
       id="path3108-1"
       inkscape:connector-curvature="0"
       sodipodi:nodetypes="cscsccscsccccccccccccccscc" />
    <path
       style="fill:#000000"
       d="m 1.5658916,989.13716 c 0.8928306,0.67234 1.623491,1.66882 1.8993532,2.59038 0.1464698,0.48931 0.569032,1.02836 1.3157144,1.6784 0.604987,0.52667 1.4147323,1.43221 1.7994317,2.01231 1.1635665,1.75456 0.8728784,1.65218 4.6934061,1.65299 3.047451,5.7e-4 1.468026,3.01446 2.028264,3.35626 0.586804,0.3581 0.824165,1.8361 0.829794,2.8779 0.008,1.4861 2.280719,1.0387 2.535141,1.6985 0.291452,0.7557 0.75018,0.6647 1.952495,-0.3876 l 1.047161,-0.9165 2.930291,0.069 1.65493,1.2588 1.002965,2.2639 c 1.71e-4,1.3685 0.104667,2.3845 -0.132779,4.0235 -0.345729,2.3866 -0.371964,2.9632 -0.177388,3.9013 0.36904,1.7792 0.680976,2.0032 3.272654,2.3499 1.215371,0.1625 2.477372,0.3799 2.804486,0.4831 0.725695,0.2289 1.061697,0.7795 0.978189,1.6564 l 0,0.6559 -16.019884,0 -15.980116,0 0,-15.6404 0,-16.35958 0.37628502,0 c 0.24512353,0 0.80336628,0.48493 1.18967388,0.77582 z"
       id="path3108-1-7"
       inkscape:connector-curvature="0"
       sodipodi:nodetypes="cscsccscsccccssccccccccscc" />
    <path
       style="fill:#000000"
       d="m 95.768537,926.15752 c -0.676232,0.88826 -1.67848,1.61518 -2.605375,1.88963 -0.492142,0.14572 -1.034313,0.56612 -1.688116,1.30898 -0.529718,0.60189 -1.4405,1.40749 -2.023958,1.79022 -1.764717,1.15761 -1.661744,0.86841 -1.662559,4.66938 -5.73e-4,3.03185 -0.04023,3.44347 -0.38403,4.00084 -0.360173,0.5838 -0.450614,0.62165 -1.498414,0.62725 -1.494783,0.008 -5.432517,0.48438 -6.096106,0.7375 -0.760145,0.28996 -0.668548,0.74634 0.389854,1.9425 l 0.921805,1.0418 0.504514,2.52423 -0.849721,2.70947 -2.144844,0.59714 c -1.438509,0.26774 -3.52017,-0.16713 -5.168638,-0.40336 -2.400446,-0.34396 -2.980413,-0.37006 -3.923894,-0.17648 -1.789573,0.36715 -2.01485,0.67749 -2.363487,3.2559 -0.16348,1.20915 -0.382159,2.46469 -0.485946,2.79013 -0.230266,0.72198 -0.569024,0.85668 -1.451,0.7736 C 64.602964,955.79256 64.344743,956.3953 64,956.36162 l 0,-15.87589 0,-16.12411 16.244037,0 15.755963,0 -0.09292,1.08557 c -0.02082,0.24327 -0.07372,0.42898 -0.138628,0.7104 z"
       id="path3108-1-7-4"
       inkscape:connector-curvature="0"
       sodipodi:nodetypes="cscsccscsccccccccccccccscc" />
    <path
       style="fill:#000000"
       d="m 157.42653,827.82186 c -1.19898,-0.45011 -1.28844,-0.5348 -3.0284,-2.8667 -0.61394,-0.82281 -1.09674,-1.2353 -1.84873,-1.57955 -0.55979,-0.25625 -1.41378,-0.68548 -1.89774,-0.95384 -1.10726,-0.61396 -1.30694,-0.60989 -2.80821,0.0573 -0.67474,0.29988 -1.47638,0.60662 -1.7814,0.68166 -0.68248,0.16789 -1.8281,-0.17977 -2.07353,-0.62925 -0.10005,-0.18324 -0.31979,-1.30206 -0.4883,-2.48625 -0.16852,-1.1842 -0.41691,-2.32656 -0.55201,-2.53859 -0.33324,-0.52301 -1.42279,-0.89369 -3.89237,-1.32424 -2.12468,-0.37043 -3.17564,-0.77946 -4.64419,-1.80754 l -0.83392,-0.58379 0,-1.416 c 0,-0.82158 0.12316,-1.70491 0.29338,-2.10424 0.4303,-1.00941 5.43271,-5.75153 7.46644,-7.07795 1.9829,-1.29326 2.58281,-1.5564 3.96202,-1.73787 1.36548,-0.17966 2.12807,-0.71718 3.19066,-2.24895 0.48564,-0.70008 1.04036,-1.37083 1.23271,-1.49057 0.19235,-0.11975 2.09076,-0.38493 4.21867,-0.58931 2.12792,-0.20437 4.17741,-0.46152 4.5544,-0.57145 0.37701,-0.10992 0.88472,-0.19986 1.12826,-0.19986 l 0.37573,0.007 0,15.95607 0,16.04393 -0.66874,0 c -0.40469,-0.005 -1.26181,-0.2985 -1.9047,-0.53985 z"
       id="path3214"
       inkscape:connector-curvature="0"
       sodipodi:nodetypes="cscccccsssscscssscscscccccc" />
    <path
       style="fill:#000000"
       d="m 0.38528613,889.70819 c 0.45436454,-1.23861 0.53984458,-1.33103 2.89377447,-3.12849 0.8305806,-0.63424 1.2469764,-1.13299 1.5944784,-1.90984 0.2586722,-0.57829 0.6919571,-1.4605 0.9628485,-1.96046 0.6197628,-1.14386 0.6156506,-1.35014 -0.057866,-2.90102 -0.3027103,-0.69705 -0.612352,-1.52518 -0.6880998,-1.84028 -0.1694722,-0.70504 0.1814647,-1.88852 0.6351922,-2.14207 0.18498,-0.10335 1.3143644,-0.33036 2.5097454,-0.50443 1.195381,-0.17409 2.3485357,-0.43069 2.5625627,-0.57026 0.527949,-0.34425 1.697874,-0.47833 2.13249,-3.02953 0.373927,-2.19492 0.587893,-2.09083 1.625679,-3.60793 l 0.98719,-1.85295 2.225116,-1.18978 c 0.730829,-0.39078 1.919953,0.72212 2.323054,0.89797 1.018949,0.44452 3.816531,5.01738 5.155478,7.11833 1.305475,2.04843 1.571098,2.66816 1.754288,4.09297 0.181357,1.41061 0.723951,2.19841 2.270202,3.29611 0.706683,0.5017 1.383778,1.07475 1.504651,1.27346 0.120872,0.19871 0.388562,2.15986 0.594865,4.3581 0.206305,2.19825 0.135514,4.31547 0.246479,4.70494 0.110963,0.38947 0.210438,0.82937 0.304992,1.06263 L 32,892.36162 l -15.964084,0 -16.035916,0 0.09751313,-0.68577 c 0.005919,-0.41807 0.04416156,-1.30352 0.28778554,-1.96766 z"
       id="path3214-0"
       inkscape:connector-curvature="0"
       sodipodi:nodetypes="cscssccccsccsssscsssscccccc" />
    <path
       style="fill:#000000"
       d="m 95.583467,799.02339 c -0.45156,1.2027 -0.53652,1.29244 -2.87594,3.03781 -0.82546,0.61585 -1.23928,1.10015 -1.58464,1.85448 -0.25708,0.56153 -0.68769,1.41817 -0.95691,1.90363 -0.61594,1.11071 -0.61186,1.31101 0.0575,2.81694 0.30085,0.67684 0.60858,1.48097 0.68386,1.78694 0.16843,0.6846 -0.18035,1.83378 -0.63128,2.07997 -0.18383,0.10036 -1.30626,0.32079 -2.49427,0.48982 -1.18801,0.16904 -2.33405,0.41821 -2.54677,0.55373 -0.52469,0.33427 -0.89657,1.42721 -1.32851,3.90446 -0.37162,2.13129 -0.78197,3.18551 -1.81336,4.65863 l -0.58568,0.83651 -1.42056,0 c -0.82423,0 -1.71041,-0.12354 -2.11102,-0.29429 -1.01267,-0.43164 -5.77007,-5.4496 -7.10077,-7.48965 -1.29743,-1.98906 -1.56141,-2.59083 -1.74347,-3.97433 -0.18024,-1.36973 -0.71949,-2.13469 -2.2562,-3.20058 -0.702337,-0.48715 -1.375249,-1.04359 -1.495375,-1.23654 -0.120136,-0.19295 -0.386171,-2.09726 -0.59121,-4.23178 -0.205028,-2.13453 -0.463006,-4.19039 -0.573292,-4.56856 -0.110274,-0.37818 -0.200504,-0.88747 -0.200504,-1.13176 L 64,796.36162 80.029347,796.37467 96,796.36162 l 0.03362,0.75115 c -0.005,0.40595 -0.20806,1.26573 -0.45019,1.91062 z"
       id="path3214-9"
       inkscape:connector-curvature="0"
       sodipodi:nodetypes="csccsscsssscscssscscscccccc" />
    <path
       style="fill:#000000"
       d="m 64.33734,891.28361 c 0,-0.96668 0.08087,-1.17252 0.857143,-2.18177 0.471428,-0.61293 0.886917,-1.18032 0.923306,-1.26091 0.03639,-0.0806 0.614756,-0.63524 1.285254,-1.23262 0.828131,-0.73782 1.482671,-1.14998 2.041001,-1.28529 0.45204,-0.10954 1.10618,-0.33952 1.45364,-0.51107 0.62037,-0.30628 0.63173,-0.33534 0.63173,-1.61585 0,-1.41202 -0.0525,-1.47758 -1.40926,-1.76123 -0.3671,-0.0767 -0.53455,-0.2309 -0.53455,-0.49216 0,-0.2214 -0.20311,-0.47082 -0.48595,-0.59678 -0.26725,-0.11903 -0.48729,-0.26679 -0.48895,-0.32838 -0.0513,-1.90941 -0.4641,-6.03125 -0.66763,-6.66604 -0.180797,-0.56388 -0.319339,-2.33092 -0.40699,-5.19102 -0.11564,-3.77345 -0.174159,-4.34948 -0.450937,-4.43897 -1.030149,-0.33303 -2.673232,-1.29255 -2.842893,-1.64512 C 64.132837,861.849 63.930936,861.4841 64,861.21518 l 0,-0.85356 16.085854,0 15.914146,0 0.02131,0.83634 c 0.01094,0.42914 -0.1162,0.61779 -0.45944,0.74532 -0.6052,0.2249 -0.70684,0.53666 -0.70684,2.16826 0,1.84485 -0.54236,6.01844 -0.82541,6.35178 -0.12541,0.14769 -0.73472,0.60481 -1.35403,1.01583 -0.61928,0.41103 -1.25349,0.9375 -1.40932,1.16994 -0.18005,0.26857 -0.36155,1.39125 -0.49787,3.07966 l -0.2145,2.65703 -0.66795,0.63908 -0.66795,0.63907 0,2.0525 c 0,1.12888 0.0546,2.19137 0.12115,2.36109 0.0667,0.16972 0.44941,0.47223 0.85059,0.67228 0.40118,0.20002 0.90949,0.66196 1.12959,1.02654 0.2201,0.36459 0.75335,0.83896 1.18501,1.05419 1.26684,0.63164 2.12889,1.48374 2.36386,2.33652 0.11713,0.42514 0.47552,1.09229 0.79642,1.48255 0.36811,0.44767 0.22476,0.88498 0.31139,1.15687 L 96,892.36162 l -15.669156,0 -16.330844,0 z"
       id="path3268"
       inkscape:connector-curvature="0"
       sodipodi:nodetypes="cscscsscsccssccccccscscccscccsccssscscccc" />
    <path
       style="fill:#000000"
       d="m 128.79633,924.56956 c 0.99095,0 1.20195,0.0805 2.23653,0.85329 0.62832,0.46931 1.20994,0.88294 1.29256,0.91916 0.0827,0.0362 0.65118,0.612 1.26355,1.27949 0.75634,0.82441 1.17885,1.47601 1.31755,2.03183 0.11229,0.45001 0.34805,1.10122 0.5239,1.44711 0.31397,0.61759 0.34375,0.6289 1.65641,0.6289 1.44746,0 1.51466,-0.0522 1.80542,-1.40293 0.0786,-0.36545 0.23671,-0.53215 0.50451,-0.53215 0.22697,0 0.48266,-0.2022 0.61176,-0.48377 0.12202,-0.26606 0.27348,-0.48511 0.33663,-0.48675 1.95733,-0.051 6.18262,-0.46202 6.83335,-0.66464 0.57802,-0.17998 2.38942,-0.3179 5.32129,-0.40516 3.86815,-0.11512 4.45864,-0.17338 4.55038,-0.44891 0.34138,-1.02553 1.43806,-2.13697 1.79948,-2.30587 0.2331,-0.10893 0.59958,-0.70634 0.87526,-0.63754 l 0.27509,0 0,16.00967 0,15.99033 -0.36295,-5e-5 c -0.43936,-6e-5 -0.63328,-0.36595 -0.76402,-0.70764 -0.23054,-0.60248 -0.55012,-0.70367 -2.22267,-0.70367 -1.89116,0 -6.1695,-0.53992 -6.51119,-0.8217 -0.15141,-0.12485 -0.61999,-0.73142 -1.04133,-1.34795 -0.42135,-0.61651 -0.96104,-1.24787 -1.19931,-1.403 -0.27531,-0.17924 -1.42618,-0.35992 -3.15696,-0.49563 l -2.72371,-0.21354 -0.65511,-0.66495 -1.05171,-0.46665 -1.70742,-0.1983 c -1.14948,-0.1335 -2.24638,0.0543 -2.42034,0.12061 -0.17398,0.0664 -0.48409,0.44739 -0.68915,0.84677 -0.20504,0.39938 -0.67858,0.90541 -1.05231,1.12452 -0.37373,0.21911 -0.86002,0.74997 -1.08065,1.17969 -0.64748,1.26115 -1.52097,2.11933 -2.39517,2.35324 -0.4358,0.11661 -1.11969,0.47339 -1.51975,0.79285 -0.45891,0.36645 -0.8966,0.64608 -1.1859,0.6054 l -0.26035,0 0,-15.97285 0,-16.02715 0.34824,-5e-5 z"
       id="path3268-4"
       inkscape:connector-curvature="0"
       sodipodi:nodetypes="cccscsscsccsscsccccsssccsscccsccsssccccccc" />
    <path
       style="fill:#000000"
       d="m 2.9027234,956.09509 c 1.2441661,-0.45291 1.2336281,-0.31171 3.039151,-2.6581 0.6370851,-0.82792 1.1380724,-1.24298 1.9184071,-1.58936 0.5808841,-0.25785 1.4670515,-0.68974 1.9692542,-0.95977 1.1489913,-0.61777 1.3561963,-0.61367 2.9140333,0.0577 0.700177,0.30174 1.532021,0.61039 1.848535,0.6859 0.708202,0.16893 1.896991,-0.18089 2.151679,-0.63316 0.103813,-0.18439 0.331842,-1.31015 0.506692,-2.5017 0.174871,-1.19155 0.432622,-2.34101 0.572818,-2.55435 0.345795,-0.52625 0.480476,-1.69243 3.04312,-2.12565 2.204766,-0.37273 2.100209,-0.58601 3.624114,-1.62047 l 1.861262,-0.98402 1.195117,-2.21799 c 0.392533,-0.72848 -0.725359,-1.9138 -0.901998,-2.3156 -0.446514,-1.01569 -5.039886,-3.8043 -7.150261,-5.13896 -2.057619,-1.30129 -2.680128,-1.56606 -4.11133,-1.74866 -1.416938,-0.18078 -2.208271,-0.72163 -3.310895,-2.26292 -0.503951,-0.70442 -1.079571,-1.37935 -1.279173,-1.49983 -0.199601,-0.12049 -2.1695482,-0.38732 -4.377649,-0.59296 -2.2081108,-0.20564 -4.3348282,-0.46439 -4.7260453,-0.575 -0.391217,-0.11061 -0.91805978,-0.20111 -1.17076831,-0.20111 L 0,924.36162 l 0,16.46234 0,15.53766 1.6291711,-0.20607 c 0.4199453,-0.006 0.6064332,0.18239 1.2735523,-0.0605 z"
       id="path3214-0-8"
       inkscape:connector-curvature="0"
       sodipodi:nodetypes="cscssccccsccsssscsssscccccc" />
    <rect
       style="fill:#000000"
       id="rect3306"
       width="33.717701"
       height="33.963085"
       x="191.36365"
       y="987.62549" />
    <path
       style="fill:#000000"
       d="m 128,1004.3512 0,-15.98958 1.16401,1.2e-4 c 0.82984,9e-5 1.9798,2.07917 2.05656,2.27876 0.25678,0.66741 0.51885,-0.97245 2.7531,-0.83319 l 2.19397,0.13674 0.24075,1.47686 c 0.67144,0.92354 -0.0928,1.67153 -0.0928,1.95526 0,0.0918 1.97194,0.34181 2.18047,0.79844 0.53944,1.1812 1.11394,1.40182 4.48145,1.72113 l 2.85918,0.2711 0.66714,0.72892 c 0.36695,0.4009 0.80519,0.98772 0.97391,1.30405 0.45485,0.85284 1.89946,1.5882 3.11985,1.5882 1.04837,0 2.20143,-0.30556 2.42365,-0.64232 0.0724,-0.10992 0.1911,-0.95554 0.26357,-1.87921 l 0.37859,-1.67938 0.4742,-0.36693 c 0.88274,-0.68307 1.89872,-0.30135 2.17137,-1.77487 0.16681,-0.90157 0.15961,-2.30148 0.42972,-2.44314 0.20668,-0.10838 0.60196,-0.65713 1.15001,-1.21946 0.77156,-0.79166 1.05276,-1.42096 1.49886,-1.42096 l 0.61244,-1.2e-4 0,16.17978 -0.0121,15.8122 -15.96197,0.01 -16.02591,0 z"
       id="path3316"
       inkscape:connector-curvature="0"
       sodipodi:nodetypes="ccscsccscscccscscsscsscccccc" />
    <path
       style="fill:#000000"
       d="m 80.210187,988.36162 15.789813,0 2.94e-4,1.19884 c 2.03e-4,0.82949 -2.066379,1.97886 -2.26651,2.0556 -0.669213,0.25664 0.975063,0.51859 0.835436,2.75178 l -0.426185,1.86275 -1.191767,0.57082 c -0.926017,0.67113 -1.303405,-1.28445 -1.96051,-0.0928 -0.04434,0.0804 -0.342728,1.971 -0.800585,2.17943 -1.184373,0.53921 -1.405602,1.11346 -1.725748,4.47936 l -0.27182,2.8578 -0.730891,0.6669 c -0.401988,0.3668 -0.990393,0.8048 -1.307569,0.9735 -0.855139,0.4545 -1.592501,1.8985 -1.592501,3.1183 0,1.0478 0.306381,2.2004 0.644063,2.4225 0.110253,0.072 0.958129,0.1911 1.884276,0.2634 l 1.683894,0.1317 0.367938,0.7207 c 0.507456,0.9941 0.302128,1.8979 1.779621,2.1704 0.903995,0.1667 2.307672,-0.062 2.449717,0.2074 0.108678,0.2066 0.6589,0.8237 1.222736,1.3716 0.793793,0.7711 0.638957,1.7953 1.025124,1.5718 0.226576,-0.1311 0.220724,0.318 0.380987,0.5182 l -16.279192,0 -15.720808,0 0,-15.9465 0,-16.05348 z"
       id="path3316-8"
       inkscape:connector-curvature="0"
       sodipodi:nodetypes="ccscsccscscccscscsscsscccccc" />
    <path
       style="fill:#000000"
       d="m 224,940.52682 0,15.8348 -0.45395,-0.0492 c -0.84566,-0.0916 -2.02936,-2.04859 -2.10806,-2.247 -0.26318,-0.66345 -0.53182,0.96667 -2.822,0.82825 l -1.78871,-0.30059 -0.70695,-1.30344 c -0.68827,-0.91804 -0.19762,-1.59984 -0.19762,-1.88188 0,-0.0911 -1.72845,-0.40153 -1.94221,-0.85544 -0.55296,-1.17418 -1.14184,-1.39351 -4.59361,-1.7109 l -2.93077,-0.26948 -0.68383,-0.7246 c -0.3762,-0.39852 -0.8254,-0.98186 -0.99835,-1.29631 -0.46616,-0.84778 -1.94702,-1.57879 -3.19787,-1.57879 -1.07463,0 -2.2566,0.30374 -2.48434,0.63852 -0.074,0.1093 -0.19597,0.94988 -0.27019,1.86805 l -0.13501,1.6694 -0.73914,0.36477 c -1.01942,0.50309 -1.94629,0.29953 -2.22575,1.7643 -0.17099,0.89622 -0.13733,2.18889 -0.41378,2.32971 -0.2118,0.10775 -0.64369,0.75215 -1.20547,1.31114 -0.79085,0.78696 -0.74418,1.04382 -1.18469,1.16468 l -0.9177,0.27881 0,-16.18886 0,-15.81114 16.31267,0 15.68733,0 z"
       id="path3316-8-2"
       inkscape:connector-curvature="0"
       sodipodi:nodetypes="ccscsccscscccscscsscsscccccc" />
    <path
       style="fill:#000000"
       d="m 208.14598,892.36162 -16.14598,0 0.10361,-1.01227 c 0.085,-0.83041 2.07001,-1.9914 2.2705,-2.06862 0.67039,-0.25826 -0.97678,-0.52188 -0.83691,-2.76919 l 0.13736,-2.2068 1.48344,-0.24218 c 0.92764,-0.67538 1.67897,0.0935 1.96397,0.0935 0.0921,0 0.34332,-1.98347 0.80199,-2.19323 1.18645,-0.54261 1.40806,-1.12048 1.72878,-4.50767 l 0.27229,-2.87593 0.73218,-0.67102 c 0.4027,-0.36917 0.99214,-0.80997 1.30987,-0.97966 0.85665,-0.45745 1.59531,-1.9106 1.59531,-3.13804 0,-1.05453 -0.30692,-2.21438 -0.64519,-2.43785 -0.11046,-0.0726 -0.95982,-0.19231 -1.8876,-0.26515 l -1.68686,-0.13247 -0.36859,-0.72531 c -0.50835,-1.00035 -0.30265,-1.90989 -1.78275,-2.18411 -0.90559,-0.16778 -2.31173,0.0625 -2.45403,-0.20874 -0.10887,-0.20784 -0.66005,-0.82893 -1.22488,-1.38021 -0.79519,-0.77606 -0.97447,-1.1694 -1.1508,-1.58178 L 192,860.36162 l 16.33692,0 15.66308,0 0,16.03896 0,15.96104 z"
       id="path3316-8-2-4"
       inkscape:connector-curvature="0"
       sodipodi:nodetypes="ccscsccscscccscscsscsscccccc" />
    <path
       style="fill:#000000"
       d="m 16.31645,820.18435 c -0.246214,-0.27207 -0.328177,-0.74818 -0.328177,-1.90633 l -0.793184,-0.15562 -1.922829,-0.25693 c -0.675794,-0.0903 0.576713,-0.62397 -0.148722,-0.0264 -1.740697,1.43386 -2.25417,1.60864 -4.6694648,1.58941 -1.172776,-0.009 -2.232799,-0.0791 -2.355606,-0.15497 -0.319001,-0.19715 -0.275908,-1.92317 0.0686,-2.7477 0.241474,-0.57793 0.246529,-0.73623 0.02927,-0.91654 -0.165273,-0.13716 -0.312364,-0.93461 -0.396824,-2.15135 -0.103142,-1.48587 -0.215045,-2.00224 -0.483449,-2.23084 -0.670008,-0.57063 -1.087442,-2.37859 -0.987746,-4.27804 0.09078,-1.72955 0.09473,-1.74057 0.850982,-2.37548 l 0.759783,-0.63788 3.471664,-0.14463 c 2.8558188,-0.11897 3.5800548,-0.20992 4.0826888,-0.51271 1.912248,-1.15194 2.003996,-1.17287 5.141466,-1.17287 l 2.968729,0 0.820014,0.89316 c 1.320351,1.43814 1.465565,2.17925 1.612306,8.22845 0.07011,2.89016 0.211715,5.41474 0.314678,5.61016 0.263115,0.4994 0.246271,2.1667 -0.03036,3.00489 l -0.232625,0.70486 -3.721512,0 c -3.353504,0 -3.753962,-0.0359 -4.049682,-0.36263 z"
       id="path3378"
       inkscape:connector-curvature="0"
       sodipodi:nodetypes="cscssccscscsscssscsscscsc" />
    <path
       style="fill:none;stroke:#000000;stroke-width:1px;stroke-linecap:butt;stroke-linejoin:miter;stroke-opacity:1"
       d="m 239.49678,0 c 0.73616,240.29529 0.73616,240.29529 0.73616,240.29529 L 0,240.29529"
       id="path3008"
       inkscape:connector-curvature="0"
       transform="translate(0,796.36162)" />
  </g>
  <g
     inkscape:groupmode="layer"
     id="layer3"
     inkscape:label="Calque" />
</svg>
